Data from Parasolid IGES Translator 17.0.34, Copyright(c) 2006 Siemens PS      1
LM Software. All Rights Reserved.                                       S      2
1H,,1H;,19HFEMAP Version 11.11,18HNozzle_example.igs,27HBy Siemens PLM IG      1
ncorporated,26HXPlus GENERIC/IGES 17.0.34,32,38, 6,308,15,6HNoname,     G      2
1.000,6,1HM,1,1.000,15H20201228.095057,1.0e-008,0.00,6HNoname,6HNoname, G      3
11,0,15H20201228.095057;                                                G      4
     314       1       0       1       0       0       0       000010001D      1
     314       1       0       1       0       0       0               0D      2
     116       2       0       1       0       0       0       000010001D      3
     116       1       0       1       0       0       0               0D      4
     123       3       0       1       0       0       0       000010201D      5
     123       1       0       1       0       0       0               0D      6
     123       4       0       1       0       0       0       000010201D      7
     123       1       0       1       0       0       0               0D      8
     190       5       0       1       0       0       0       000010001D      9
     190       1       0       1       1       0       0               0D     10
     110       6       0       1       0       0       0       000010001D     11
     110       1       0       2       0       0       0               0D     12
     502       8       0       1       0       0       0       000010001D     13
     502       1       0      13       1       0       0               0D     14
     110      21       0       1       0       0       0       000010001D     15
     110       1       0       2       0       0       0               0D     16
     124      23       0       1       0       0       0       000010001D     17
     124       1       0       3       0       0       0               0D     18
     100      26       0       1       0       0      17       000010001D     19
     100       1       0       1       0       0       0               0D     20
     124      27       0       1       0       0       0       000010001D     21
     124       1       0       3       0       0       0               0D     22
     100      30       0       1       0       0      21       000010001D     23
     100       1       0       1       0       0       0               0D     24
     110      31       0       1       0       0       0       000010001D     25
     110       1       0       2       0       0       0               0D     26
     110      33       0       1       0       0       0       000010001D     27
     110       1       0       2       0       0       0               0D     28
     124      35       0       1       0       0       0       000010001D     29
     124       1       0       3       0       0       0               0D     30
     100      38       0       1       0       0      29       000010001D     31
     100       1       0       1       0       0       0               0D     32
     124      39       0       1       0       0       0       000010001D     33
     124       1       0       3       0       0       0               0D     34
     100      42       0       1       0       0      33       000010001D     35
     100       1       0       1       0       0       0               0D     36
     124      43       0       1       0       0       0       000010001D     37
     124       1       0       3       0       0       0               0D     38
     100      46       0       1       0       0      37       000010001D     39
     100       1       0       1       0       0       0               0D     40
     124      47       0       1       0       0       0       000010001D     41
     124       1       0       3       0       0       0               0D     42
     100      50       0       1       0       0      41       000010001D     43
     100       1       0       1       0       0       0               0D     44
     124      51       0       1       0       0       0       000010001D     45
     124       1       0       2       0       0       0               0D     46
     100      53       0       1       0       0      45       000010001D     47
     100       1       0       2       0       0       0               0D     48
     126      55       0       1       0       0       0       000010001D     49
     126       1       0      10       0       0       0               0D     50
     124      65       0       1       0       0       0       000010001D     51
     124       1       0       3       0       0       0               0D     52
     100      68       0       1       0       0      51       000010001D     53
     100       1       0       1       0       0       0               0D     54
     124      69       0       1       0       0       0       000010001D     55
     124       1       0       3       0       0       0               0D     56
     100      72       0       1       0       0      55       000010001D     57
     100       1       0       1       0       0       0               0D     58
     124      73       0       1       0       0       0       000010001D     59
     124       1       0       3       0       0       0               0D     60
     100      76       0       1       0       0      59       000010001D     61
     100       1       0       1       0       0       0               0D     62
     124      77       0       1       0       0       0       000010001D     63
     124       1       0       3       0       0       0               0D     64
     100      80       0       1       0       0      63       000010001D     65
     100       1       0       1       0       0       0               0D     66
     124      81       0       1       0       0       0       000010001D     67
     124       1       0       3       0       0       0               0D     68
     100      84       0       1       0       0      67       000010001D     69
     100       1       0       1       0       0       0               0D     70
     124      85       0       1       0       0       0       000010001D     71
     124       1       0       3       0       0       0               0D     72
     100      88       0       1       0       0      71       000010001D     73
     100       1       0       1       0       0       0               0D     74
     124      89       0       1       0       0       0       000010001D     75
     124       1       0       3       0       0       0               0D     76
     100      92       0       1       0       0      75       000010001D     77
     100       1       0       1       0       0       0               0D     78
     124      93       0       1       0       0       0       000010001D     79
     124       1       0       3       0       0       0               0D     80
     100      96       0       1       0       0      79       000010001D     81
     100       1       0       1       0       0       0               0D     82
     124      97       0       1       0       0       0       000010001D     83
     124       1       0       2       0       0       0               0D     84
     100      99       0       1       0       0      83       000010001D     85
     100       1       0       2       0       0       0               0D     86
     124     101       0       1       0       0       0       000010001D     87
     124       1       0       2       0       0       0               0D     88
     100     103       0       1       0       0      87       000010001D     89
     100       1       0       2       0       0       0               0D     90
     126     105       0       1       0       0       0       000010001D     91
     126       1       0      32       0       0       0               0D     92
     126     137       0       1       0       0       0       000010001D     93
     126       1       0      31       0       0       0               0D     94
     124     168       0       1       0       0       0       000010001D     95
     124       1       0       2       0       0       0               0D     96
     100     170       0       1       0       0      95       000010001D     97
     100       1       0       2       0       0       0               0D     98
     126     172       0       1       0       0       0       000010001D     99
     126       1       0      10       0       0       0               0D    100
     504     182       0       1       0       0       0       000010001D    101
     504       1       0       6       1       0       0               0D    102
     508     188       0       1       0       0       0       000010001D    103
     508       1       0       1       1       0       0               0D    104
     510     189       0       1       0       0       0       000010001D    105
     510       1      -1       1       1       0       0               0D    106
     314     190       0       1       0       0       0       000010001D    107
     314       1       0       1       0       0       0               0D    108
     128     191       0       1       0       0       0       000010001D    109
     128       1       0      44       0       0       0               0D    110
     508     235       0       1       0       0       0       000010001D    111
     508       1       0       1       1       0       0               0D    112
     510     236       0       1       0       0       0       000010001D    113
     510       1    -107       1       1       0       0               0D    114
     314     237       0       1       0       0       0       000010001D    115
     314       1       0       1       0       0       0               0D    116
     116     238       0       1       0       0       0       000010001D    117
     116       1       0       1       0       0       0               0D    118
     123     239       0       1       0       0       0       000010201D    119
     123       1       0       1       0       0       0               0D    120
     123     240       0       1       0       0       0       000010201D    121
     123       1       0       1       0       0       0               0D    122
     194     241       0       1       0       0       0       000010001D    123
     194       1       0       1       1       0       0               0D    124
     508     242       0       1       0       0       0       000010001D    125
     508       1       0       1       1       0       0               0D    126
     510     243       0       1       0       0       0       000010001D    127
     510       1    -115       1       1       0       0               0D    128
     314     244       0       1       0       0       0       000010001D    129
     314       1       0       1       0       0       0               0D    130
     116     245       0       1       0       0       0       000010001D    131
     116       1       0       1       0       0       0               0D    132
     123     246       0       1       0       0       0       000010201D    133
     123       1       0       1       0       0       0               0D    134
     123     247       0       1       0       0       0       000010201D    135
     123       1       0       1       0       0       0               0D    136
     198     248       0       1       0       0       0       000010001D    137
     198       1       0       1       1       0       0               0D    138
     508     249       0       1       0       0       0       000010001D    139
     508       1       0       1       1       0       0               0D    140
     510     250       0       1       0       0       0       000010001D    141
     510       1    -129       1       1       0       0               0D    142
     314     251       0       1       0       0       0       000010001D    143
     314       1       0       1       0       0       0               0D    144
     116     252       0       1       0       0       0       000010001D    145
     116       1       0       1       0       0       0               0D    146
     123     253       0       1       0       0       0       000010201D    147
     123       1       0       1       0       0       0               0D    148
     123     254       0       1       0       0       0       000010201D    149
     123       1       0       1       0       0       0               0D    150
     198     255       0       1       0       0       0       000010001D    151
     198       1       0       1       1       0       0               0D    152
     508     256       0       1       0       0       0       000010001D    153
     508       1       0       1       1       0       0               0D    154
     510     257       0       1       0       0       0       000010001D    155
     510       1    -143       1       1       0       0               0D    156
     314     258       0       1       0       0       0       000010001D    157
     314       1       0       1       0       0       0               0D    158
     116     259       0       1       0       0       0       000010001D    159
     116       1       0       1       0       0       0               0D    160
     123     260       0       1       0       0       0       000010201D    161
     123       1       0       1       0       0       0               0D    162
     123     261       0       1       0       0       0       000010201D    163
     123       1       0       1       0       0       0               0D    164
     194     262       0       1       0       0       0       000010001D    165
     194       1       0       1       1       0       0               0D    166
     508     263       0       1       0       0       0       000010001D    167
     508       1       0       1       1       0       0               0D    168
     510     264       0       1       0       0       0       000010001D    169
     510       1    -157       1       1       0       0               0D    170
     314     265       0       1       0       0       0       000010001D    171
     314       1       0       1       0       0       0               0D    172
     116     266       0       1       0       0       0       000010001D    173
     116       1       0       1       0       0       0               0D    174
     123     267       0       1       0       0       0       000010201D    175
     123       1       0       1       0       0       0               0D    176
     123     268       0       1       0       0       0       000010201D    177
     123       1       0       1       0       0       0               0D    178
     192     269       0       1       0       0       0       000010001D    179
     192       1       0       1       1       0       0               0D    180
     508     270       0       1       0       0       0       000010001D    181
     508       1       0       1       1       0       0               0D    182
     510     271       0       1       0       0       0       000010001D    183
     510       1    -171       1       1       0       0               0D    184
     314     272       0       1       0       0       0       000010001D    185
     314       1       0       1       0       0       0               0D    186
     116     273       0       1       0       0       0       000010001D    187
     116       1       0       1       0       0       0               0D    188
     123     274       0       1       0       0       0       000010201D    189
     123       1       0       1       0       0       0               0D    190
     123     275       0       1       0       0       0       000010201D    191
     123       1       0       1       0       0       0               0D    192
     198     276       0       1       0       0       0       000010001D    193
     198       1       0       1       1       0       0               0D    194
     508     277       0       1       0       0       0       000010001D    195
     508       1       0       1       1       0       0               0D    196
     510     278       0       1       0       0       0       000010001D    197
     510       1    -185       1       1       0       0               0D    198
     314     279       0       1       0       0       0       000010001D    199
     314       1       0       1       0       0       0               0D    200
     116     280       0       1       0       0       0       000010001D    201
     116       1       0       1       0       0       0               0D    202
     123     281       0       1       0       0       0       000010201D    203
     123       1       0       1       0       0       0               0D    204
     123     282       0       1       0       0       0       000010201D    205
     123       1       0       1       0       0       0               0D    206
     192     283       0       1       0       0       0       000010001D    207
     192       1       0       1       1       0       0               0D    208
     508     284       0       1       0       0       0       000010001D    209
     508       1       0       1       1       0       0               0D    210
     510     285       0       1       0       0       0       000010001D    211
     510       1    -199       1       1       0       0               0D    212
     314     286       0       1       0       0       0       000010001D    213
     314       1       0       1       0       0       0               0D    214
     116     287       0       1       0       0       0       000010001D    215
     116       1       0       1       0       0       0               0D    216
     123     288       0       1       0       0       0       000010201D    217
     123       1       0       1       0       0       0               0D    218
     123     289       0       1       0       0       0       000010201D    219
     123       1       0       1       0       0       0               0D    220
     190     290       0       1       0       0       0       000010001D    221
     190       1       0       1       1       0       0               0D    222
     508     291       0       1       0       0       0       000010001D    223
     508       1       0       1       1       0       0               0D    224
     510     292       0       1       0       0       0       000010001D    225
     510       1    -213       1       1       0       0               0D    226
     314     293       0       1       0       0       0       000010001D    227
     314       1       0       1       0       0       0               0D    228
     116     294       0       1       0       0       0       000010001D    229
     116       1       0       1       0       0       0               0D    230
     123     295       0       1       0       0       0       000010201D    231
     123       1       0       1       0       0       0               0D    232
     123     296       0       1       0       0       0       000010201D    233
     123       1       0       1       0       0       0               0D    234
     198     297       0       1       0       0       0       000010001D    235
     198       1       0       1       1       0       0               0D    236
     508     298       0       1       0       0       0       000010001D    237
     508       1       0       1       1       0       0               0D    238
     510     299       0       1       0       0       0       000010001D    239
     510       1    -227       1       1       0       0               0D    240
     314     300       0       1       0       0       0       000010001D    241
     314       1       0       1       0       0       0               0D    242
     116     301       0       1       0       0       0       000010001D    243
     116       1       0       1       0       0       0               0D    244
     123     302       0       1       0       0       0       000010201D    245
     123       1       0       1       0       0       0               0D    246
     123     303       0       1       0       0       0       000010201D    247
     123       1       0       1       0       0       0               0D    248
     198     304       0       1       0       0       0       000010001D    249
     198       1       0       1       1       0       0               0D    250
     508     305       0       1       0       0       0       000010001D    251
     508       1       0       1       1       0       0               0D    252
     510     306       0       1       0       0       0       000010001D    253
     510       1    -241       1       1       0       0               0D    254
     314     307       0       1       0       0       0       000010001D    255
     314       1       0       1       0       0       0               0D    256
     128     308       0       1       0       0       0       000010001D    257
     128       1       0      44       0       0       0               0D    258
     508     352       0       1       0       0       0       000010001D    259
     508       1       0       1       1       0       0               0D    260
     510     353       0       1       0       0       0       000010001D    261
     510       1    -255       1       1       0       0               0D    262
     314     354       0       1       0       0       0       000010001D    263
     314       1       0       1       0       0       0               0D    264
     116     355       0       1       0       0       0       000010001D    265
     116       1       0       1       0       0       0               0D    266
     123     356       0       1       0       0       0       000010201D    267
     123       1       0       1       0       0       0               0D    268
     123     357       0       1       0       0       0       000010201D    269
     123       1       0       1       0       0       0               0D    270
     198     358       0       1       0       0       0       000010001D    271
     198       1       0       1       1       0       0               0D    272
     508     359       0       1       0       0       0       000010001D    273
     508       1       0       1       1       0       0               0D    274
     510     360       0       1       0       0       0       000010001D    275
     510       1    -263       1       1       0       0               0D    276
     514     361       0       1       0       0       0       000010001D    277
     514       1       0       2       1       0       0               0D    278
     186     363       0       1       0       0       0       000000001D    279
     186       1       0       1       0       0       0 XMTE83C       0D    280
314,0.,50.1960813999176,50.1960813999176,10HMixedColor;                1P      1
116,-0.00000660767124,-0.2642362,0.0006305092161;                      3P      2
123,0.,-1.,0.;                                                         5P      3
123,0.,0.,-1.;                                                         7P      4
190,3,5,7;                                                             9P      5
110,-0.01066068966857,-0.0206502,-0.0055286755095,                    11P      6
-0.01066068966857,-0.05104557792513,-0.0055286755095;                 11P      7
502,14,-0.01066068966857,-0.05104557792513,-0.0055286755095,          13P      8
-0.06151692830778,-0.2642362,-0.03492895310324,                       13P      9
-0.00511661235243,-0.0600060308374,-0.00232361323087,                 13P     10
-0.00373207105412,-0.06512250703074,-0.00152320211909,                13P     11
0.00510339700996,-0.0600060308374,0.00358463166306,                   13P     12
-0.00909560497541,-0.05540998239997,-0.0046238912457,                 13P     13
0.00908238963294,-0.05540998239997,0.0058849096779,                   13P     14
0.0106474743261,-0.0206502,0.0067896939417,0.06150371296531,          13P     15
-0.2642362,0.03618997153544,0.00371885571165,-0.06512250703074,       13P     16
0.00278422055128,0.00354475299454,-0.0643524748,0.0026835707913,      13P     17
-0.01066068966857,-0.0206502,-0.0055286755095,-0.00355796833701,      13P     18
-0.0643524748,-0.0014225523591,0.0106474743261,                       13P     19
-0.05104557792513,0.0067896939417;                                    13P     20
110,0.0106474743261,-0.0206502,0.0067896939417,0.0106474743261,       15P     21
-0.05104557792513,0.0067896939417;                                    15P     22
124,0.86574209935847,0.,-0.50049037692887,-0.00531715628291,0.,       17P     23
1.,0.,-0.05104557792513,0.50049037692887,0.,0.86574209935847,         17P     24
-0.00243954880502;                                                    17P     25
100,0.,0.,0.,-0.0061722,0.,-0.00436440447484,-0.00436440447484;       19P     26
124,-0.86574209935847,0.,0.50049037692887,0.00530394094044,0.,        21P     27
1.,0.,-0.05104557792513,-0.50049037692887,0.,-0.86574209935847,       21P     28
0.00370056723722;                                                     21P     29
100,0.,0.,0.,-0.0061722,0.,-0.00436440447484,-0.00436440447484;       23P     30
110,0.00510339700996,-0.0600060308374,0.00358463166306,               25P     31
0.00908238963294,-0.05540998239997,0.0058849096779;                   25P     32
110,-0.00511661235243,-0.0600060308374,-0.00232361323087,             27P     33
-0.00909560497541,-0.05540998239997,-0.0046238912457;                 27P     34
124,0.86574209935847,0.,-0.50049037692887,-0.00887951187335,0.,       29P     35
1.,0.,-0.0643524748,0.50049037692887,0.,0.86574209935847,             29P     36
-0.00449896660801;                                                    29P     37
100,0.,0.,0.,0.0061468,0.,0.0043464439626,0.0043464439626;            31P     38
124,-0.86574209935847,0.,0.50049037692887,0.00886629653088,0.,        33P     39
1.,0.,-0.0643524748,-0.50049037692887,0.,-0.86574209935847,           33P     40
0.0057599850402;                                                      33P     41
100,0.,0.,0.,0.0061468,0.,0.0043464439626,0.0043464439626;            35P     42
124,0.86574209935847,0.,-0.50049037692887,-0.00492133899508,0.,       37P     43
1.,0.,-0.0643524748,0.50049037692887,0.,0.86574209935847,             37P     44
-0.00221072460469;                                                    37P     45
100,0.,0.,0.,0.00137369771188,-0.00077003223074,0.0015748,0.;         39P     46
124,-0.86574209935847,0.,0.50049037692887,0.00490812365261,0.,        41P     47
1.,0.,-0.0643524748,-0.50049037692887,0.,-0.86574209935847,           41P     48
0.00347174303689;                                                     41P     49
100,0.,0.,0.,0.00137369771188,-0.00077003223074,0.0015748,0.;         43P     50
124,0.,1.,0.,-0.00000660767124,0.,0.,-1.,-0.06512250703074,-1.,       45P     51
0.,0.,0.0006305092161;                                                45P     52
100,0.,0.,0.,0.00215371133518,-0.00372546338288,                      47P     53
-0.00215371133518,0.00372546338288;                                   47P     54
126,7,3,0,0,1,0,0.,0.,0.,0.,0.125,0.25,0.5,0.75,1.,1.,1.,1.,1.,       49P     55
1.,1.,1.,1.,1.,1.,1.,0.00371885571165,-0.06512250703074,              49P     56
0.00278422055128,0.00744884425175,-0.07280852210498,                  49P     57
0.0049405479053,0.0147096849432,-0.08831235783756,                    49P     58
0.00913808074699,0.02798503656536,-0.1200588708063,                   49P     59
0.01681263618579,0.04222953047337,-0.16098365644798,                  49P     60
0.02504745823091,0.05484659441084,-0.21188834714441,                  49P     61
0.03234145385672,0.05989331537555,-0.24671047021741,                  49P     62
0.03525899163126,0.06150371296542,-0.26423620000115,                  49P     63
0.0361899715355,0.,1.;                                                49P     64
124,-0.86574209935847,0.50049037692887,0.,-0.00000660767124,0.,       51P     65
0.,-1.,-0.0643524748,-0.50049037692887,-0.86574209935847,0.,          51P     66
0.0006305092161;                                                      51P     67
100,0.,0.,0.,-0.0041021,0.,0.0041021,-0.;                             53P     68
124,-0.86574209935847,0.50049037692887,0.,-0.00000660767124,0.,       55P     69
0.,-1.,-0.0643524748,-0.50049037692887,-0.86574209935847,0.,          55P     70
0.0006305092161;                                                      55P     71
100,0.,0.,0.,0.0041021,0.,-0.0041021,0.;                              57P     72
124,-0.86574209935847,0.50049037692887,0.,-0.00000660767124,0.,       59P     73
0.,-1.,-0.0600060308374,-0.50049037692887,-0.86574209935847,0.,       59P     74
0.0006305092161;                                                      59P     75
100,0.,0.,0.,-0.0059024560374,0.,0.0059024560374,-0.;                 61P     76
124,-0.86574209935847,0.50049037692887,0.,-0.00000660767124,0.,       63P     77
0.,-1.,-0.0600060308374,-0.50049037692887,-0.86574209935847,0.,       63P     78
0.0006305092161;                                                      63P     79
100,0.,0.,0.,0.0059024560374,0.,-0.0059024560374,0.;                  65P     80
124,-0.86574209935847,0.50049037692887,0.,-0.00000660767124,0.,       67P     81
0.,-1.,-0.05540998239997,-0.50049037692887,-0.86574209935847,0.,      67P     82
0.0006305092161;                                                      67P     83
100,0.,0.,0.,0.01049850447484,0.,-0.01049850447484,0.;                69P     84
124,-0.86574209935847,0.50049037692887,0.,-0.00000660767124,0.,       71P     85
0.,-1.,-0.05540998239997,-0.50049037692887,-0.86574209935847,0.,      71P     86
0.0006305092161;                                                      71P     87
100,0.,0.,0.,-0.01049850447484,0.,0.01049850447484,-0.;               73P     88
124,-0.86574209935847,0.50049037692887,0.,-0.00000660767124,0.,       75P     89
0.,-1.,-0.05104557792513,-0.50049037692887,-0.86574209935847,0.,      75P     90
0.0006305092161;                                                      75P     91
100,0.,0.,0.,-0.0123063,-0.,0.0123063,-0.;                            77P     92
124,-0.86574209935847,0.50049037692887,0.,-0.00000660767124,0.,       79P     93
0.,-1.,-0.05104557792513,-0.50049037692887,-0.86574209935847,0.,      79P     94
0.0006305092161;                                                      79P     95
100,0.,0.,0.,0.0123063,0.,-0.0123063,-0.;                             81P     96
124,0.,-1.,0.,-0.00000660767124,0.,0.,-1.,-0.0206502,1.,0.,0.,        83P     97
0.0006305092161;                                                      83P     98
100,0.,0.,0.,0.0061591847256,-0.01065408199734,-0.0061591847256,      85P     99
0.01065408199734;                                                     85P    100
124,0.,-1.,0.,-0.00000660767124,0.,0.,-1.,-0.0206502,1.,0.,0.,        87P    101
0.0006305092161;                                                      87P    102
100,0.,0.,0.,-0.0061591847256,0.01065408199734,0.0061591847256,       89P    103
-0.01065408199734;                                                    89P    104
126,32,2,0,0,1,0,0.,0.,0.,0.0625,0.0625,0.125,0.125,0.1875,           91P    105
0.1875,0.25,0.25,0.3125,0.3125,0.375,0.375,0.4375,0.4375,0.5,         91P    106
0.5,0.5625,0.5625,0.625,0.625,0.6875,0.6875,0.75,0.75,0.8125,         91P    107
0.8125,0.875,0.875,0.9375,0.9375,1.,1.,1.,1.,1.,1.,1.,1.,1.,1.,       91P    108
1.,1.,1.,1.,1.,1.,1.,1.,1.,1.,1.,1.,1.,1.,1.,1.,1.,1.,1.,1.,1.,       91P    109
1.,1.,1.,1.,1.,-0.06151692830778,-0.2642362,-0.03492895310324,        91P    110
-0.0580261387782,-0.2642362,-0.0409672781249,-0.05339398435974,       91P    111
-0.2642362,-0.04624325498431,-0.04876270552804,-0.2642362,            91P    112
-0.05151823455931,-0.0432267168521,-0.2642362,-0.05576113083488,      91P    113
-0.03769181562985,-0.2642362,-0.06000319366346,                       91P    114
-0.03139285122511,-0.2642362,-0.06310516681359,                       91P    115
-0.02509485042843,-0.2642362,-0.06620666542758,                       91P    116
-0.01835663556493,-0.2642362,-0.06800819256025,                       91P    117
-0.01161963081496,-0.2642362,-0.06980939615732,                       91P    118
-0.00461298108654,-0.2642362,-0.07026470592917,0.00239223725962,      91P    119
-0.2642362,-0.0707199226862,0.00930707112563,-0.2642362,              91P    120
-0.0698056341516,0.01622055462647,-0.2642362,-0.06889152416407,       91P    121
0.02286804503279,-0.2642362,-0.06663087904817,0.0295143151476,        91P    122
-0.2642362,-0.06437064892288,0.0355528546481,-0.2642362,              91P    123
-0.06087981142045,0.04159024286625,-0.2642362,-0.05738963946631,      91P    124
0.0468666371567,-0.2642362,-0.05275715796339,0.05214200114997,        91P    125
-0.2642362,-0.04812558102377,0.05638503237975,-0.2642362,             91P    126
-0.04258959996477,0.06062727430695,-0.2642362,-0.0370546487271,       91P    127
0.06372922719932,-0.2642362,-0.03075569093442,0.06683063865186,       91P    128
-0.2642362,-0.02445783261255,0.06863209410511,-0.2642362,             91P    129
-0.01771951867759,0.07043318615776,-0.2642362,-0.01098256403648,      91P    130
0.07088849148303,-0.2642362,-0.00397574732166,0.07134369397489,       91P    131
-0.2642362,0.00302948686195,0.07042953569646,-0.2642362,              91P    132
0.00994418801296,0.06951554641574,-0.2642362,0.0168576108638,         91P    133
0.06725508571619,-0.2642362,0.02350465100659,0.0649948365588,         91P    134
-0.2642362,0.03015106909512,0.06150371296531,-0.2642362,              91P    135
0.03618997153544,0.,1.;                                               91P    136
126,32,2,0,0,1,0,0.,0.,0.,0.0625,0.0625,0.125,0.125,0.1875,           93P    137
0.1875,0.25,0.25,0.3125,0.3125,0.375,0.375,0.4375,0.4375,0.5,         93P    138
0.5,0.5625,0.5625,0.625,0.625,0.6875,0.6875,0.75,0.75,0.8125,         93P    139
0.8125,0.875,0.875,0.9375,0.9375,1.,1.,1.,1.,1.,1.,1.,1.,1.,1.,       93P    140
1.,1.,1.,1.,1.,1.,1.,1.,1.,1.,1.,1.,1.,1.,1.,1.,1.,1.,1.,1.,1.,       93P    141
1.,1.,1.,1.,1.,0.06150371296531,-0.2642362,0.03618997153544,          93P    142
0.05801292343576,-0.2642362,0.04222829655703,0.05338076901727,        93P    143
-0.2642362,0.04750427341651,0.04874949018555,-0.2642362,              93P    144
0.05277925299154,0.04321350150963,-0.2642362,0.05702214926708,        93P    145
0.03767860028782,-0.2642362,0.06126421209529,0.03137963588264,        93P    146
-0.2642362,0.06436618524579,0.02508163508678,-0.2642362,              93P    147
0.06746768385951,0.01834342022246,-0.2642362,0.06926921099244,        93P    148
0.01160641547272,-0.2642362,0.07107041458949,0.00459976574407,        93P    149
-0.2642362,0.07152572436137,-0.0024054526029,-0.2642362,              93P    150
0.07198094111846,-0.0093202864681,-0.2642362,0.07106665258379,        93P    151
-0.01623376996925,-0.2642362,0.07015254259606,-0.02288126037527,      93P    152
-0.2642362,0.06789189748037,-0.02952753048966,-0.2642362,             93P    153
0.06563166735532,-0.03556606999057,-0.2642362,0.06214082985265,       93P    154
-0.0416034582086,-0.2642362,0.05865065789857,-0.04687985249917,       93P    155
-0.2642362,0.05401817639559,-0.05215521649254,-0.2642362,             93P    156
0.04938659945592,-0.05639824772222,-0.2642362,0.04385061839697,       93P    157
-0.06064048964933,-0.2642362,0.03831566715934,-0.0637424425418,       93P    158
-0.2642362,0.03201670936662,-0.0668438539945,-0.2642362,              93P    159
0.02571885104455,-0.06864530944758,-0.2642362,0.01898053710979,       93P    160
-0.07044640150045,-0.2642362,0.01224358246742,-0.0709017068255,       93P    161
-0.2642362,0.00523676575386,-0.07135690931723,-0.2642362,             93P    162
-0.00176846842981,-0.07044275103893,-0.2642362,                       93P    163
-0.00868316958077,-0.06952876175834,-0.2642362,                       93P    164
-0.01559659243159,-0.06726830105866,-0.2642362,-0.0222436325744,      93P    165
-0.06500805190097,-0.2642362,-0.02889005066344,                       93P    166
-0.06151692830778,-0.2642362,-0.03492895310324,0.,1.;                 93P    167
124,0.,1.,0.,-0.00000660767124,0.,0.,-1.,-0.06512250703074,-1.,       95P    168
0.,0.,0.0006305092161;                                                95P    169
100,0.,0.,0.,-0.00215371133518,0.00372546338288,                      97P    170
0.00215371133518,-0.00372546338288;                                   97P    171
126,7,3,0,0,1,0,0.,0.,0.,0.,0.125,0.25,0.5,0.75,1.,1.,1.,1.,1.,       99P    172
1.,1.,1.,1.,1.,1.,1.,-0.00373207105412,-0.06512250703074,             99P    173
-0.00152320211909,-0.00746205959422,-0.07280852210498,                99P    174
-0.00367952947311,-0.01472290028567,-0.08831235783756,                99P    175
-0.00787706231479,-0.02799825190783,-0.1200588708063,                 99P    176
-0.0155516177536,-0.04224274581584,-0.16098365644798,                 99P    177
-0.02378643979872,-0.05485980975331,-0.21188834714441,                99P    178
-0.03108043542453,-0.05990653071802,-0.24671047021741,                99P    179
-0.03399797319906,-0.06151692830789,-0.26423620000115,                99P    180
-0.0349289531033,0.,1.;                                               99P    181
504,26,11,13,12,13,1,15,13,8,13,14,19,13,1,13,6,23,13,14,13,7,       101P    182
25,13,5,13,7,27,13,3,13,6,31,13,13,13,3,35,13,11,13,5,39,13,4,       101P    183
13,13,43,13,10,13,11,47,13,4,13,10,49,13,10,13,9,53,13,11,13,13,     101P    184
57,13,13,13,11,61,13,5,13,3,65,13,3,13,5,69,13,6,13,7,73,13,7,       101P    185
13,6,77,13,14,13,1,81,13,1,13,14,85,13,8,13,12,89,13,12,13,8,91,     101P    186
13,2,13,9,93,13,9,13,2,97,13,10,13,4,99,13,4,13,2;                   101P    187
508,2,0,101,23,1,0,0,101,24,1,0;                                     103P    188
510,9,1,1,103;                                                       105P    189
314,0.,50.1960813999176,50.1960813999176,10HMixedColor;              107P    190
128,7,3,3,3,0,0,0,0,0,0.00980459631916,0.00980459631916,             109P    191
0.00980459631916,0.00980459631916,0.13235357659343,                  109P    192
0.2549025568677,0.50000051741625,0.74509847796479,                   109P    193
0.99019643851333,0.99019643851333,0.99019643851333,                  109P    194
0.99019643851333,0.,0.,0.,0.,1.,1.,1.,1.,1.,1.,1.,1.,1.,1.,1.,       109P    195
1.,0.33333333333333,0.33333333333333,0.33333333333333,               109P    196
0.33333333333333,0.33333333333333,0.33333333333333,                  109P    197
0.33333333333333,0.33333333333333,0.33333333333333,                  109P    198
0.33333333333333,0.33333333333333,0.33333333333333,                  109P    199
0.33333333333333,0.33333333333333,0.33333333333333,                  109P    200
0.33333333333333,1.,1.,1.,1.,1.,1.,1.,1.,0.00371885571165,           109P    201
-0.06512250703074,0.00278422055128,0.00744884425175,                 109P    202
-0.07280852210498,0.0049405479053,0.0147096849432,                   109P    203
-0.08831235783756,0.00913808074699,0.02798503656536,                 109P    204
-0.1200588708063,0.01681263618579,0.04222953047337,                  109P    205
-0.16098365644798,0.02504745823091,0.05484659441084,                 109P    206
-0.21188834714441,0.03234145385672,0.05989331537555,                 109P    207
-0.24671047021741,0.03525899163126,0.06150371296542,                 109P    208
-0.26423620000115,0.0361899715355,-0.00058856695872,                 109P    209
-0.06512250703074,0.01023514731705,-0.00117123312666,                109P    210
-0.07280852210498,0.01985145175127,-0.00230545811858,                109P    211
-0.08831235783756,0.03857066597586,-0.00437921737404,                109P    212
-0.1200588708063,0.07279592465898,-0.00660436755626,                 109P    213
-0.16098365644798,0.10951973452013,-0.00857529487041,                109P    214
-0.21188834714441,0.14204785802088,-0.00936364945476,                109P    215
-0.24671047021741,0.15505883772483,-0.00961521167338,                109P    216
-0.26423620000115,0.1592106128088,-0.00803949372448,                 109P    217
-0.06512250703074,0.00592772464668,-0.01608213697263,                109P    218
-0.07280852210498,0.01123137437286,-0.03173804334745,                109P    219
-0.08831235783756,0.02155552291408,-0.06036250584722,                109P    220
-0.1200588708063,0.04043167071958,-0.09107664384547,                 109P    221
-0.16098365644798,0.0606858364905,-0.11828169903456,                 109P    222
-0.21188834714441,0.07862596873963,-0.12916349554834,                109P    223
-0.24671047021741,0.08580187289451,-0.13263585294669,                109P    224
-0.26423620000115,0.08809168817001,-0.00373207105412,                109P    225
-0.06512250703074,-0.00152320211909,-0.00746205959422,               109P    226
-0.07280852210498,-0.00367952947311,-0.01472290028567,               109P    227
-0.08831235783756,-0.00787706231479,-0.02799825190783,               109P    228
-0.1200588708063,-0.0155516177536,-0.04224274581584,                 109P    229
-0.16098365644798,-0.02378643979872,-0.05485980975331,               109P    230
-0.21188834714441,-0.03108043542453,-0.05990653071802,               109P    231
-0.24671047021741,-0.03399797319906,-0.06151692830789,               109P    232
-0.26423620000115,-0.0349289531033,0.00980459631916,                 109P    233
0.99019643851333,0.,1.;                                              109P    234
508,4,0,101,12,0,0,0,101,25,1,0,0,101,26,1,0,0,101,24,0,0;           111P    235
510,109,1,1,111;                                                     113P    236
314,0.,50.1960813999176,50.1960813999176,10HMixedColor;              115P    237
116,-0.00000660767124,-0.06009795180615,0.0006305092161;             117P    238
123,0.,1.,0.;                                                        119P    239
123,-0.86574209935847,0.,-0.50049037692887;                          121P    240
194,117,119,0.00581053506865,45.00000000000005,121;                  123P    241
508,4,0,101,5,0,0,0,101,16,0,0,0,101,6,1,0,0,101,17,1,0;             125P    242
510,123,1,1,125;                                                     127P    243
314,0.,50.1960813999176,50.1960813999176,10HMixedColor;              129P    244
116,-0.00000660767124,-0.05104557792513,0.0006305092161;             131P    245
123,0.,-1.,0.;                                                       133P    246
123,0.86574209935847,0.,0.50049037692887;                            135P    247
198,131,133,0.0061341,0.0061722,135;                                 137P    248
508,4,0,101,3,0,0,0,101,20,1,0,0,101,4,1,0,0,101,17,0,0;             139P    249
510,137,1,1,139;                                                     141P    250
314,0.,50.1960813999176,50.1960813999176,10HMixedColor;              143P    251
116,-0.00000660767124,-0.0643524748,0.0006305092161;                 145P    252
123,0.,-1.,0.;                                                       147P    253
123,0.86574209935847,0.,0.50049037692887;                            149P    254
198,145,147,0.0102489,0.0061468,149;                                 151P    255
508,4,0,101,7,0,0,0,101,13,0,0,0,101,8,1,0,0,101,15,1,0;             153P    256
510,151,1,1,153;                                                     155P    257
314,0.,50.1960813999176,50.1960813999176,10HMixedColor;              157P    258
116,-0.00000660767124,-0.06009795180615,0.0006305092161;             159P    259
123,0.,1.,0.;                                                        161P    260
123,-0.86574209935847,0.,-0.50049037692887;                          163P    261
194,159,161,0.00581053506865,45.00000000000005,163;                  165P    262
508,4,0,101,15,0,0,0,101,5,1,0,0,101,18,1,0,0,101,6,0,0;             167P    263
510,165,1,1,167;                                                     169P    264
314,0.,50.1960813999176,50.1960813999176,10HMixedColor;              171P    265
116,-0.00000660767124,0.02666517146,0.0006305092161;                 173P    266
123,0.,1.,0.;                                                        175P    267
123,0.86574209935847,0.,0.50049037692887;                            177P    268
192,173,175,0.0123063,177;                                           179P    269
508,4,0,101,21,1,0,0,101,1,1,0,0,101,19,0,0,0,101,2,0,0;             181P    270
510,179,1,1,181;                                                     183P    271
314,0.,50.1960813999176,50.1960813999176,10HMixedColor;              185P    272
116,-0.00000660767124,-0.05104557792513,0.0006305092161;             187P    273
123,0.,-1.,0.;                                                       189P    274
123,0.86574209935847,0.,0.50049037692887;                            191P    275
198,187,189,0.0061341,0.0061722,191;                                 193P    276
508,4,0,101,19,1,0,0,101,3,1,0,0,101,18,0,0,0,101,4,0,0;             195P    277
510,193,1,1,195;                                                     197P    278
314,0.,50.1960813999176,50.1960813999176,10HMixedColor;              199P    279
116,-0.00000660767124,0.02666517146,0.0006305092161;                 201P    280
123,0.,1.,0.;                                                        203P    281
123,0.86574209935847,0.,0.50049037692887;                            205P    282
192,201,203,0.0123063,205;                                           207P    283
508,4,0,101,1,0,0,0,101,22,1,0,0,101,2,1,0,0,101,20,0,0;             209P    284
510,207,1,1,209;                                                     211P    285
314,0.,50.1960813999176,50.1960813999176,10HMixedColor;              213P    286
116,-0.00000660767124,-0.0206502,0.0006305092161;                    215P    287
123,0.,1.,0.;                                                        217P    288
123,1.,0.,0.;                                                        219P    289
190,215,217,219;                                                     221P    290
508,2,0,101,21,0,0,0,101,22,0,0;                                     223P    291
510,221,1,1,223;                                                     225P    292
314,0.,50.1960813999176,50.1960813999176,10HMixedColor;              227P    293
116,-0.00000660767124,-0.0643524748,0.0006305092161;                 229P    294
123,0.,-1.,0.;                                                       231P    295
123,0.86574209935847,0.,0.50049037692887;                            233P    296
198,229,231,0.0056769,0.0015748,233;                                 235P    297
508,4,0,101,11,0,0,0,101,9,1,0,0,101,14,1,0,0,101,10,0,0;            237P    298
510,235,1,1,237;                                                     239P    299
314,0.,50.1960813999176,50.1960813999176,10HMixedColor;              241P    300
116,-0.00000660767124,-0.0643524748,0.0006305092161;                 243P    301
123,0.,-1.,0.;                                                       245P    302
123,0.86574209935847,0.,0.50049037692887;                            247P    303
198,243,245,0.0102489,0.0061468,247;                                 249P    304
508,4,0,101,14,0,0,0,101,7,1,0,0,101,16,1,0,0,101,8,0,0;             251P    305
510,249,1,1,251;                                                     253P    306
314,0.,50.1960813999176,50.1960813999176,10HMixedColor;              255P    307
128,7,3,3,3,0,0,0,0,0,0.00980459631916,0.00980459631916,             257P    308
0.00980459631916,0.00980459631916,0.13235357659343,                  257P    309
0.2549025568677,0.50000051741625,0.74509847796479,                   257P    310
0.99019643851333,0.99019643851333,0.99019643851333,                  257P    311
0.99019643851333,0.,0.,0.,0.,1.,1.,1.,1.,1.,1.,1.,1.,1.,1.,1.,       257P    312
1.,0.33333333333333,0.33333333333333,0.33333333333333,               257P    313
0.33333333333333,0.33333333333333,0.33333333333333,                  257P    314
0.33333333333333,0.33333333333333,0.33333333333333,                  257P    315
0.33333333333333,0.33333333333333,0.33333333333333,                  257P    316
0.33333333333333,0.33333333333333,0.33333333333333,                  257P    317
0.33333333333333,1.,1.,1.,1.,1.,1.,1.,1.,-0.00373207105412,          257P    318
-0.06512250703074,-0.00152320211909,-0.00746205959422,               257P    319
-0.07280852210498,-0.00367952947311,-0.01472290028567,               257P    320
-0.08831235783756,-0.00787706231479,-0.02799825190783,               257P    321
-0.1200588708063,-0.0155516177536,-0.04224274581584,                 257P    322
-0.16098365644798,-0.02378643979872,-0.05485980975331,               257P    323
-0.21188834714441,-0.03108043542453,-0.05990653071802,               257P    324
-0.24671047021741,-0.03399797319906,-0.06151692830789,               257P    325
-0.26423620000115,-0.0349289531033,0.00057535161625,                 257P    326
-0.06512250703074,-0.00897412888485,0.00115801778419,                257P    327
-0.07280852210498,-0.01859043331907,0.00229224277611,                257P    328
-0.08831235783756,-0.03730964754366,0.00436600203157,                257P    329
-0.1200588708063,-0.07153490622678,0.00659115221379,                 257P    330
-0.16098365644798,-0.10825871608793,0.00856207952794,                257P    331
-0.21188834714441,-0.14078683958868,0.00935043411229,                257P    332
-0.24671047021741,-0.15379781929263,0.00960199633091,                257P    333
-0.26423620000115,-0.15794959437661,0.00802627838201,                257P    334
-0.06512250703074,-0.00466670621448,0.01606892163016,                257P    335
-0.07280852210498,-0.00997035594066,0.03172482800498,                257P    336
-0.08831235783756,-0.02029450448188,0.06034929050475,                257P    337
-0.1200588708063,-0.03917065228739,0.091063428503,                   257P    338
-0.16098365644798,-0.0594248180583,0.11826848369209,                 257P    339
-0.21188834714441,-0.07736495030743,0.12915028020587,                257P    340
-0.24671047021741,-0.08454085446232,0.13262263760422,                257P    341
-0.26423620000115,-0.08683066973781,0.00371885571165,                257P    342
-0.06512250703074,0.00278422055128,0.00744884425175,                 257P    343
-0.07280852210498,0.0049405479053,0.0147096849432,                   257P    344
-0.08831235783756,0.00913808074699,0.02798503656536,                 257P    345
-0.1200588708063,0.01681263618579,0.04222953047337,                  257P    346
-0.16098365644798,0.02504745823091,0.05484659441084,                 257P    347
-0.21188834714441,0.03234145385672,0.05989331537555,                 257P    348
-0.24671047021741,0.03525899163126,0.06150371296542,                 257P    349
-0.26423620000115,0.0361899715355,0.00980459631916,                  257P    350
0.99019643851333,0.,1.;                                              257P    351
508,4,0,101,11,1,0,0,101,12,1,0,0,101,23,0,0,0,101,26,0,0;           259P    352
510,257,1,1,259;                                                     261P    353
314,0.,50.1960813999176,50.1960813999176,10HMixedColor;              263P    354
116,-0.00000660767124,-0.0643524748,0.0006305092161;                 265P    355
123,0.,-1.,0.;                                                       267P    356
123,0.86574209935847,0.,0.50049037692887;                            269P    357
198,265,267,0.0056769,0.0015748,269;                                 271P    358
508,4,0,101,9,0,0,0,101,25,0,0,0,101,10,1,0,0,101,13,1,0;            273P    359
510,271,1,1,273;                                                     275P    360
514,14,105,1,113,0,127,1,141,1,155,0,169,1,183,1,197,1,211,1,        277P    361
225,1,239,0,253,0,261,0,275,0;                                       277P    362
186,277,1,0;                                                         279P    363
S      2G      4D    280P    363                                        T      1
