DBRep_DrawableShape

CASCADE Topology V1, (c) Matra-Datavision
Locations 0
Curve2ds 48
1 -3.4694469519536142e-018 4.9194841165598251e-017 1 1.2581742372988689e-016 
1 -1.5439038936193583e-016 1 1 -3.3972835457702038e-016 
7 0 0  3 47 45  0.99019643851333405 0  0.99019636462866301 0.011895337016342695  0.99019573254263948 0.034853421609954652  0.99019439375283003 0.067069829460652777  0.99019410156099297 0.097360923274792552  0.99019498083270785 0.1259578630157224  0.99019646779499693 0.15306457150375394  0.99019643113474176 0.17885958306253161  0.99019488970137237 0.20350260559762409  0.99019399010209841 0.22712829380268504  0.9901943177373268 0.24985239900029468  0.99019566311195395 0.27177732629815449  0.99019681779065249 0.29299617556696167  0.99019569677317565 0.31359728431470868  0.9901943745996229 0.33366070770425721  0.99019405346163614 0.3532552142805796  0.99019494031637711 0.37244283429562614  0.99019645217477426 0.39128152282201717  0.99019644647611071 0.40982809291581301  0.99019492472410675 0.42813960737821727  0.99019403198422662 0.44626688612002152  0.99019435305054648 0.46425626554946758  0.99019568197492114 0.48215233395245433  0.9901968167745272 0.49999999999999906  0.99019568197492147 0.5178476660475434  0.99019435305054593 0.53574373445053025  0.99019403198422717 0.5537331138799757  0.99019492472410631 0.57186039262177957  0.99019644647611138 0.59017190708418343  0.99019645217477414 0.60871847717797911  0.99019494031637734 0.62755716570437026  0.99019405346163536 0.64674478571941707  0.99019437459962323 0.6663392922957394  0.99019569677317565 0.68640271568528832  0.99019681779065172 0.70700382443303522  0.99019566311195462 0.72822267370184235  0.99019431773732569 0.75014760099970201  0.99019399010209963 0.77287170619731116  0.99019488970137115 0.79649739440237244  0.99019643113474243 0.82114041693746542  0.99019646779499559 0.84693542849624537  0.9901949808327084 0.87404213698427957  0.9901941015609923 0.90263907672521282  0.9901943937528298 0.93293017053935401  0.99019573254263915 0.96514657839005169  0.99019636462866278 0.98810466298366006  0.99019643851333405 1 
 0 4 0.022727272727272728 1 0.045454545454545456 1 0.068181818181818177 1 0.090909090909090912 1 0.11363636363636365 1 0.13636363636363635 1 0.15909090909090909 1 0.18181818181818182 1 0.20454545454545456 1 0.22727272727272729 1 0.25 1 0.27272727272727271 1 0.29545454545454547 1 0.31818181818181818 1 0.34090909090909094 1 0.36363636363636365 1 0.38636363636363635 1 0.40909090909090912 1 0.43181818181818182 1 0.45454545454545459 1 0.47727272727272729 1 0.5 1 0.52272727272727271 1 0.54545454545454541 1 0.56818181818181823 1 0.59090909090909094 1 0.61363636363636365 1 0.63636363636363635 1 0.65909090909090906 1 0.68181818181818188 1 0.70454545454545459 1 0.72727272727272729 1 0.75 1 0.77272727272727271 1 0.79545454545454553 1 0.81818181818181823 1 0.84090909090909094 1 0.86363636363636365 1 0.88636363636363635 1 0.90909090909090917 1 0.93181818181818188 1 0.95454545454545459 1 0.97727272727272729 1 1 4
1 -6.7654215563095477e-017 0.99999999999999867 1 1.132427848590068e-016 
1 -1.1102230246251565e-016 1.662556414831869e-016 1 5.7562578526136519e-017 
7 0 0  3 25 23  0.0098045963191566096 0  0.0098045963191566096 0.023747357485570608  0.0098045963191566096 0.068051316043714352  0.0098045963191566096 0.12668455998945069  0.0098045963191566114 0.17943857413436048  0.0098045963191566079 0.22757821196810707  0.0098045963191566096 0.27212464287535326  0.0098045963191566096 0.313869122819804  0.0098045963191566079 0.35345671684424307  0.0098045963191566131 0.39142453098811253  0.0098045963191566079 0.42823510551894794  0.0098045963191566096 0.46430016495116305  0.0098045963191566079 0.49999999999999745  0.0098045963191566096 0.53569983504883312  0.0098045963191566114 0.57176489448104684  0.0098045963191566114 0.60857546901188508  0.0098045963191566079 0.64654328315574605  0.0098045963191566114 0.68613087718019394  0.0098045963191566079 0.72787535712464246  0.0098045963191566114 0.77242178803188988  0.0098045963191566079 0.82056142586563663  0.0098045963191566079 0.87331544001054717  0.0098045963191566114 0.93194868395628438  0.0098045963191566096 0.97625264251442911  0.0098045963191566096 1 
 5.236554087104075 4 5.3793537531763382 1 5.5221534192486015 1 5.6649530853208656 1 5.8077527513931289 1 5.9505524174653921 1 6.0933520835376553 1 6.2361517496099186 1 6.3789514156821827 1 6.521751081754446 1 6.6645507478267092 1 6.8073504138989724 1 6.9501500799712357 1 7.0929497460434998 1 7.2357494121157622 1 7.3785490781880263 1 7.5213487442602895 1 7.6641484103325528 1 7.8069480764048169 1 7.9497477424770793 1 8.0925474085493434 1 8.2353470746216075 1 8.3781467406938699 4
1 -2.0949614335142819 2.6306824216534785 1 -1.4135798584282295e-016 
1 6.2831853071795862 -3.1415926535897949 0 1 
1 0 -3.1415926535897949 0 1 
1 3.1415926535897931 3.1415926535897927 1 1.4135798584282297e-016 
1 3.1415926535897931 3.1415926535897931 1 0 
1 3.1415926535897931 -3.1415926535897958 0 1 
1 3.1415926535897931 -3.1415926535897958 0 1 
1 6.2831853071795862 3.1415926535897931 0 1 
1 0 3.1415926535897931 0 1 
1 3.1415926535897931 3.9269908169872259 1 2.8271597168564594e-016 
1 6.2831853071795862 0.12999588067087292 -1 4.0640420929811603e-016 
1 3.1415926535897931 3.1415926535897931 0 1 
1 3.1415926535897931 3.1415926535897931 0 1 
1 6.2831853071795862 0.12999588067087484 -1 -2.0320210464905801e-016 
1 -3.1415926535897931 3.9269908169872276 1 -2.8271597168564594e-016 
1 3.1415926535897931 2.3869795029440866e-015 0 1 
1 3.1415926535897931 2.3869795029440866e-015 0 1 
1 6.2831853071795862 6.6297899142183283 -1 -1.1308638867425838e-015 
1 -3.1415926535897931 0.78539816339742685 1 -2.4737647522494022e-016 
1 0 -1.915134717478395e-015 0 1 
1 6.2831853071795862 -1.915134717478395e-015 0 1 
1 -3.1415926535897931 0 1 0 
1 -3.1415926535897931 77.710749385125794 1 0 
1 3.1415926535897927 -3.1415926535897931 0 1 
1 3.1415926535897927 -3.1415926535897931 0 1 
1 0 -3.1415926535897931 0 1 
1 6.2831853071795862 -3.1415926535897931 0 1 
1 7.3298165272550975 47.315371460000001 -1 0 
1 3.1415926535897922 0 0 1 
1 3.1415926535897922 0 0 1 
1 0 0 0 1 
1 6.2831853071795862 0 0 1 
7 0 0  3 47 45  0.99019643851333405 1  0.99019636462866278 0.9881046629836594  0.99019573254263893 0.96514657839005003  0.99019439375282992 0.93293017053935212  0.99019410156099286 0.9026390767252116  0.9901949808327084 0.87404213698428013  0.99019646779499637 0.84693542849624703  0.99019643113474276 0.8211404169374682  0.99019488970137193 0.79649739440237555  0.99019399010209919 0.77287170619731449  0.99019431773732658 0.75014760099970534  0.99019566311195439 0.72822267370184524  0.99019681779065205 0.70700382443303844  0.99019569677317598 0.68640271568529132  0.99019437459962267 0.66633929229574262  0.99019405346163669 0.6467447857194204  0.99019494031637734 0.62755716570437392  0.99019645217477459 0.60871847717798255  0.9901964464761116 0.59017190708418699  0.99019492472410686 0.57186039262178279  0.99019403198422673 0.55373311387997848  0.99019435305054693 0.53574373445053292  0.9901956819749208 0.51784766604754595  0.99019681677452742 0.50000000000000122  0.99019568197492092 0.48215233395245671  0.99019435305054637 0.46425626554946992  0.99019403198422684 0.44626688612002458  0.99019492472410731 0.42813960737822038  0.99019644647611071 0.40982809291581623  0.9901964521747747 0.39128152282202067  0.99019494031637745 0.37244283429562952  0.99019405346163614 0.35325521428058299  0.99019437459962267 0.33366070770426043  0.9901956967731762 0.31359728431471179  0.99019681779065205 0.29299617556696461  0.9901956631119545 0.27177732629815798  0.99019431773732658 0.24985239900029807  0.99019399010209908 0.22712829380268873  0.99019488970137193 0.2035026055976277  0.99019643113474232 0.17885958306253433  0.99019646779499582 0.15306457150375499  0.9901949808327084 0.12595786301572015  0.99019410156099241 0.097360923274787625  0.99019439375282936 0.067069829460645589  0.99019573254263937 0.034853421609948705  0.99019636462866278 0.011895337016340157  0.99019643851333405 0 
 0 4 0.022727272727272728 1 0.045454545454545456 1 0.068181818181818177 1 0.090909090909090912 1 0.11363636363636365 1 0.13636363636363635 1 0.15909090909090909 1 0.18181818181818182 1 0.20454545454545456 1 0.22727272727272729 1 0.25 1 0.27272727272727271 1 0.29545454545454547 1 0.31818181818181818 1 0.34090909090909094 1 0.36363636363636365 1 0.38636363636363635 1 0.40909090909090912 1 0.43181818181818182 1 0.45454545454545459 1 0.47727272727272729 1 0.5 1 0.52272727272727271 1 0.54545454545454541 1 0.56818181818181823 1 0.59090909090909094 1 0.61363636363636365 1 0.63636363636363635 1 0.65909090909090906 1 0.68181818181818188 1 0.70454545454545459 1 0.72727272727272729 1 0.75 1 0.77272727272727271 1 0.79545454545454553 1 0.81818181818181823 1 0.84090909090909094 1 0.86363636363636365 1 0.88636363636363635 1 0.90909090909090917 1 0.93181818181818188 1 0.95454545454545459 1 0.97727272727272729 1 1 4
7 0 0  3 25 23  0.0098045963191564604 0  0.0098045963191564604 0.023747357485572114  0.0098045963191564604 0.068051316043717572  0.0098045963191564604 0.1266845599894541  0.0098045963191564604 0.17943857413436423  0.0098045963191564604 0.22757821196811115  0.0098045963191564587 0.27212464287535765  0.0098045963191564587 0.31386912281980839  0.0098045963191564587 0.35345671684424756  0.0098045963191564622 0.39142453098811708  0.0098045963191564587 0.42823510551895255  0.0098045963191564587 0.46430016495116755  0.0098045963191564604 0.500000000000002  0.0098045963191564587 0.53569983504883778  0.0098045963191564604 0.57176489448105161  0.0098045963191564587 0.60857546901188919  0.0098045963191564604 0.64654328315575027  0.0098045963191564604 0.68613087718019794  0.0098045963191564604 0.72787535712464613  0.0098045963191564604 0.77242178803189299  0.0098045963191564604 0.82056142586563952  0.0098045963191564604 0.87331544001054895  0.0098045963191564622 0.93194868395628538  0.0098045963191564604 0.97625264251442911  0.0098045963191564604 1 
 2.0949614335142837 4 2.2377610995865469 1 2.3805607656588101 1 2.5233604317310734 1 2.6661600978033366 1 2.8089597638755999 1 2.9517594299478631 1 3.0945590960201264 1 3.2373587620923896 1 3.3801584281646528 1 3.5229580942369161 1 3.6657577603091793 1 3.8085574263814426 1 3.9513570924537058 1 4.0941567585259691 1 4.2369564245982323 1 4.3797560906704955 1 4.5225557567427588 1 4.665355422815022 1 4.8081550888872853 1 4.9509547549595485 1 5.0937544210318118 1 5.236554087104075 4
1 -2.0949614335142837 2.6306824216534768 1 1.4135798584282297e-016 
1 -3.1415926535897931 3.1415926535897931 1 0 
1 -3.1415926535897931 3.1415926535897931 1 0 
1 6.2831853071795862 6.6297899142183212 -1 1.1308638867425838e-015 
1 3.1415926535897931 0.7853981633974253 1 2.4737647522494022e-016 
1 3.1415926535897931 0 1 0 
1 3.1415926535897931 77.710749385125794 1 0 
1 7.3298165272550975 47.315371460000001 -1 0 
Curves 26
7 0 0  3 15 13  -2.8350129878599302 -63.278933087125701 -1.00460780555763  -3.13462027124547 -63.893064549337304 -1.1778124611974401  -6.6351276485383801 -71.086723300959804 -3.2014754643040799  -13.1188002299925 -84.842891646593998 -6.9497230504847201  -21.663092891862 -104.770187010965 -11.889226694928601  -29.4291216007061 -124.691580558114 -16.378811570851699  -36.4021356231761 -144.61624760198001 -20.4099501963412  -42.585725379674201 -164.54182344007299 -23.984718213625499  -47.978823129064502 -184.468856855171 -27.102498355548601  -52.581392500498502 -204.39715190581501 -29.763269595918199  -56.393294513067701 -224.32656903994399 -31.9669515890896  -59.414164008910298 -244.257114671507 -33.713333235249102  -60.983629042890598 -258.27991344294003 -34.620649798709998  -61.644296604258301 -265.63838983411102 -35.002585431802899  -61.705788159843003 -266.339751535782 -35.038134045940197 
 0 4 0.0098045963191565905 1 0.114774234414513 1 0.217798379918093 1 0.31901599934688801 1 0.41857414692018802 1 0.51662713796447102 1 0.61333661399424899 1 0.70887099754840099 1 0.80340472942616503 1 0.89711822710518496 1 0.99019643850799399 1 1 4
7 0 0  3 11 9  -61.516928307784099 -264.2362 -34.9289531032395  -56.862205702016702 -264.2362 -42.9806353204199  -44.352202705989001 -264.2362 -57.228731329654998  -18.834283088634599 -264.2362 -69.7952723748773  9.5495216709572901 -264.2362 -71.639334532306293  36.478623158581698 -264.2362 -62.481194405475897  57.853113583325701 -264.2362 -43.714756368493298  70.419116786587296 -264.2362 -18.197379909171602  72.262983900968806 -264.2362 10.187163939611199  66.158435825848898 -264.2362 28.138289465541  61.503712965312602 -264.2362 36.189971535435397 
 0 4 0.125 1 0.25 1 0.375 1 0.5 1 0.625 1 0.75 1 0.875 1 1 4
7 0 0  3 15 13  2.8217976453887301 -63.278933087125701 2.2656262377536298  3.12140492877427 -63.893064549337304 2.4388308933934399  6.6219123060671699 -71.086723300959804 4.46249389650007  13.105584887521299 -84.842891646593998 8.2107414826807208  21.649877549390801 -104.770187010965 13.150245127124601  29.415906258234902 -124.691580558114 17.639830003047699  36.388920280704902 -144.61624760198001 21.670968628537199  42.572510037203003 -164.54182344007299 25.245736645821498  47.965607786593303 -184.468856855171 28.363516787744601  52.568177158027297 -204.39715190581501 31.024288028114199  56.380079170596503 -224.32656903994399 33.2279700212856  59.400948666439099 -244.257114671507 34.974351667445099  60.9704137004194 -258.27991344294003 35.881668230906001  61.631081261787102 -265.63838983411102 36.263603863998902  61.692572817371797 -266.339751535782 36.2991524781362 
 0 4 0.0098045963191565905 1 0.114774234414513 1 0.217798379918093 1 0.31901599934688801 1 0.41857414692018802 1 0.51662713796447102 1 0.61333661399424899 1 0.70887099754840099 1 0.80340472942616503 1 0.89711822710518496 1 0.99019643850799399 1 1 4
2 -0.0066076712356384903 -65.122507030741104 0.63050921609798405 0 -1 0 0 0 -1 1 0 0 4.3032022881216196
2 4.9081236526124297 -64.352474799999996 3.47174303688546 0.50049037692886511 0 -0.86574209935846524 -0.86574209935846524 0 -0.50049037692886511 0 1 0 1.5748
2 -0.0066076712356384903 -64.352474799999996 0.63050921609798405 0 -1 0 -0.86574209935846524 -0 -0.50049037692886511 0.50049037692886511 0 -0.86574209935846524 4.1021000000000001
2 -4.9213389950837101 -64.352474799999996 -2.2107246046894899 -0.50049037692886511 0 0.86574209935846524 0.86574209935846524 0 0.50049037692886511 0 1 -0 1.5748
2 8.86629653087933 -64.352474799999996 5.7599850402042296 0.50049037692886511 0 -0.86574209935846524 -0.86574209935846524 0 -0.50049037692886511 0 1 0 6.1467999999999998
2 -0.0066076712356367999 -60.006030837402598 0.63050921609798505 0 -1 0 -0.86574209935846524 -0 -0.50049037692886511 0.50049037692886511 0 -0.86574209935846524 5.9024560374024704
2 -8.8795118733506104 -64.352474799999996 -4.49896660800826 -0.50049037692886511 0 0.86574209935846524 0.86574209935846524 0 0.50049037692886511 0 1 -0 6.1467999999999998
2 -0.0066076712356367999 -60.006030837402598 0.63050921609798505 0 -1 0 -0.86574209935846524 -0 -0.50049037692886511 0.50049037692886511 0 -0.86574209935846524 5.9024560374024704
1 5.0238171574966799 -60.097951806151301 3.5386261027669099 0.61217210921504905 0.70710678118654691 0.35390013944501192 
2 -0.0066076712356350096 -55.409982399965301 0.63050921609798505 0 -1 0 -0.86574209935846524 -0 -0.50049037692886511 0.50049037692886511 0 -0.86574209935846524 10.498504474839701
1 -5.0370324999679497 -60.097951806151301 -2.2776076705709398 -0.61217210921504905 0.70710678118654691 -0.35390013944501192 
2 -0.0066076712356333096 -51.045577925125798 0.63050921609798605 0 -1 0 -0.86574209935846524 -0 -0.50049037692886511 0.50049037692886511 0 -0.86574209935846524 12.3063
2 -5.3171562829103998 -51.045577925125798 -2.4395488050213601 -0.50049037692886511 0 0.86574209935846524 0.86574209935846524 0 0.50049037692886511 0 1 -0 6.1722000000000001
2 5.30394094043913 -51.045577925125798 3.7005672372173399 0.50049037692886511 0 -0.86574209935846524 -0.86574209935846524 0 -0.50049037692886511 0 1 0 6.1722000000000001
2 -0.0066076712356030404 -20.650200000000002 0.63050921609799904 0 1 0 0 -0 1 1 0 -0 12.3063
1 -10.660689668570701 26.66517146 -5.5286755095016904 0 -1 0 
1 10.6474743260995 26.66517146 6.7896939416976902 0 -1 0 
7 0 0  3 11 9  -61.516928307784099 -264.2362 -34.9289531032395  -66.171651168320807 -264.2362 -26.8772710333443  -72.276199243440004 -264.2362 -8.9261455074159208  -70.432332129058807 -264.2362 19.4583983413672  -57.866328925797703 -264.2362 44.975774800688697  -36.491838501053103 -264.2362 63.742212837671602  -9.5627370134295493 -264.2362 72.900352964502105  18.821067746162701 -264.2362 71.056290807073097  44.3389873635169 -264.2362 58.489749761852103  56.848990359546399 -264.2362 44.2416537526138  61.503712965312602 -264.2362 36.189971535435397 
 0 4 0.125 1 0.25 1 0.375 1 0.5 1 0.625 1 0.75 1 0.875 1 1 4
2 -0.0066076712356384903 -65.122507030741104 0.63050921609798405 0 -1 0 0 0 -1 1 0 0 4.3032022881216196
2 -0.0066076712356384903 -64.352474799999996 0.63050921609798405 0 -1 0 -0.86574209935846524 -0 -0.50049037692886511 0.50049037692886511 0 -0.86574209935846524 4.1021000000000001
2 -0.0066076712356350096 -55.409982399965301 0.63050921609798505 0 -1 0 -0.86574209935846524 -0 -0.50049037692886511 0.50049037692886511 0 -0.86574209935846524 10.498504474839701
2 -0.0066076712356333096 -51.045577925125798 0.63050921609798605 0 -1 0 -0.86574209935846524 -0 -0.50049037692886511 0.50049037692886511 0 -0.86574209935846524 12.3063
2 -0.0066076712356030404 -20.650200000000002 0.63050921609799904 0 1 0 0 -0 1 1 0 -0 12.3063
Polygon3D 0
PolygonOnTriangulations 0
Surfaces 14
9 1 0 0 0 3 3 8 4 6 2 -3.7320710541182001 -65.122507030741104 -1.5232021190851599  1 0.57535161624813103 -65.122507030741104 -8.9741288848503693  0.33333333333333198 8.0262783820133308 -65.122507030741104 -4.6667062144840301  0.33333333333333198 3.7188557116469898 -65.122507030741104 2.78422055128117  1 
-7.4620595942192001 -72.808522104979005 -3.67952947310763  1 1.15801778419208 -72.808522104979005 -18.590433319074901  0.33333333333333198 16.068921630159299 -72.808522104979005 -9.9703559406635698  0.33333333333333198 7.44884425174798 -72.808522104979005 4.9405479053036396  1 
-14.722900285670701 -88.312357837556206 -7.8770623147909298  1 2.2922427761072401 -88.312357837556206 -37.3096475436611  0.33333333333333198 31.7248280049774 -88.312357837556206 -20.294504481883202  0.33333333333333198 14.709684943199401 -88.312357837556206 9.1380807469869705  1 
-27.9982519078272 -120.058870806301 -15.5516177535987  1 4.3660020315661798 -120.058870806301 -71.534906226781999  0.33333333333333198 60.349290504749497 -120.058870806301 -39.170652287388599  0.33333333333333198 27.985036565356001 -120.058870806301 16.812636185794702  1 
-42.242745815843399 -160.98365644798201 -23.7864397987167  1 6.5911522137861596 -160.98365644798201 -108.258716087933  0.33333333333333198 91.063428503002001 -160.98365644798201 -59.424818058302897  0.33333333333333198 42.229530473372201 -160.98365644798201 25.047458230912799  1 
-54.859809753313698 -211.888347144406 -31.080435424526801  1 8.5620795279359392 -211.888347144406 -140.78683958868299  0.33333333333333198 118.268483692092 -211.888347144406 -77.364950307433503  0.33333333333333198 54.846594410842499 -211.888347144406 32.3414538567229  1 
-59.906530718022204 -246.71047021740699 -33.997973199059402  1 9.3504341122927705 -246.71047021740699 -153.79781929263299  0.33333333333333198 129.15028020586601 -246.71047021740699 -84.540854462317697  0.33333333333333198 59.893315375550898 -246.71047021740699 35.258991631255498  1 
-61.516928307889401 -264.23620000114602 -34.928953103300302  1 9.6019963309074594 -264.23620000114602 -157.94959437660799  0.33333333333333198 132.62263760421499 -264.23620000114602 -86.830669737811206  0.33333333333333198 61.503712965418103 -264.23620000114602 36.189971535496497  1 

0.0098045963191566096 4
0.132353576593429 1
0.25490255686770102 1
0.50000051741624596 1
0.74509847796479001 1
0.99019643851333405 4

0 4
1 4

9 1 0 0 0 3 3 8 4 6 2 3.71885571164698 -65.122507030741104 2.78422055128115  1 -0.58856695871932097 -65.122507030741104 10.2351473170463  0.33333333333333298 -8.0394937244844993 -65.122507030741104 5.9277246466800202  0.33333333333333298 -3.7320710541181801 -65.122507030741104 -1.5232021190851499  1 
7.4488442517479898 -72.808522104979005 4.9405479053036103  1 -1.1712331266632601 -72.808522104979005 19.851451751270801  0.33333333333333298 -16.082136972630501 -72.808522104979005 11.2313743728596  0.33333333333333298 -7.4620595942191903 -72.808522104979005 -3.67952947310763  1 
14.7096849431995 -88.312357837556206 9.1380807469869101  1 -2.3054581185784002 -88.312357837556206 38.570665975857104  0.33333333333333298 -31.7380433474485 -88.312357837556206 21.555522914079202  0.33333333333333298 -14.722900285670599 -88.312357837556206 -7.8770623147909298  1 
27.985036565356001 -120.058870806301 16.812636185794599  1 -4.37921737403728 -120.058870806301 72.795924658977995  0.33333333333333298 -60.362505847220604 -120.058870806301 40.431670719584702  0.33333333333333298 -27.9982519078272 -120.058870806301 -15.5516177535987  1 
42.2295304733723 -160.98365644798201 25.047458230912699  1 -6.6043675562572401 -160.98365644798201 109.51973452012901  0.33333333333333298 -91.0766438454731 -160.98365644798201 60.685836490499  0.33333333333333298 -42.242745815843399 -160.98365644798201 -23.786439798716799  1 
54.846594410842599 -211.888347144406 32.341453856722701  1 -8.5752948704069905 -211.888347144406 142.047858020879  0.33333333333333298 -118.281699034564 -211.888347144406 78.625968739629698  0.33333333333333298 -54.859809753313698 -211.888347144406 -31.080435424526801  1 
59.893315375550998 -246.71047021740699 35.258991631255299  1 -9.3636494547637508 -246.71047021740699 155.058837724829  0.33333333333333298 -129.16349554833701 -246.71047021740699 85.801872894513807  0.33333333333333298 -59.906530718022097 -246.71047021740699 -33.997973199059402  1 
61.503712965418202 -264.23620000114602 36.189971535496298  1 -9.6152116733784094 -264.23620000114602 159.210612808804  0.33333333333333298 -132.63585294668599 -264.23620000114602 88.091688170007401  0.33333333333333298 -61.516928307889401 -264.23620000114602 -34.928953103300401  1 

0.0098045963191564604 4
0.132353576593429 1
0.25490255686770102 1
0.50000051741624596 1
0.74509847796479001 1
0.99019643851333405 4

0 4
1 4

5 -0.0066076712356384903 -64.352474799999996 0.63050921609798405 0 -1 0 0.86574209935846524 0 0.50049037692886511 -0.50049037692886511 0 0.86574209935846524 5.6768999999999998 1.5748
5 -0.0066076712356384903 -64.352474799999996 0.63050921609798405 0 -1 0 0.86574209935846524 0 0.50049037692886511 -0.50049037692886511 0 0.86574209935846524 5.6768999999999998 1.5748
5 -0.0066076712356384903 -64.352474799999996 0.63050921609798405 0 -1 0 0.86574209935846524 0 0.50049037692886511 -0.50049037692886511 0 0.86574209935846524 10.248900000000001 6.1467999999999998
5 -0.0066076712356384903 -64.352474799999996 0.63050921609798405 0 -1 0 0.86574209935846524 0 0.50049037692886511 -0.50049037692886511 0 0.86574209935846524 10.248900000000001 6.1467999999999998
3 -0.0066076712356368302 -60.097951806151301 0.63050921609798405 0 1 0 -0.86574209935846524 0 -0.50049037692886511 -0.50049037692886511 0 0.86574209935846524 5.81053506865379
0.78539816339744895
3 -0.0066076712356368302 -60.097951806151301 0.63050921609798405 0 1 0 -0.86574209935846524 0 -0.50049037692886511 -0.50049037692886511 0 0.86574209935846524 5.81053506865379
0.78539816339744895
5 -0.0066076712356333096 -51.045577925125798 0.63050921609798605 0 -1 0 0.86574209935846524 0 0.50049037692886511 -0.50049037692886511 0 0.86574209935846524 6.1341000000000001 6.1722000000000001
2 -0.0066076712356030404 26.66517146 0.63050921609799904 0 -1 0 0.86574209935846524 0 0.50049037692886511 -0.50049037692886511 0 0.86574209935846524 12.3063
5 -0.0066076712356333096 -51.045577925125798 0.63050921609798605 0 -1 0 0.86574209935846524 0 0.50049037692886511 -0.50049037692886511 0 0.86574209935846524 6.1341000000000001 6.1722000000000001
2 -0.0066076712356030404 26.66517146 0.63050921609799904 0 -1 0 0.86574209935846524 0 0.50049037692886511 -0.50049037692886511 0 0.86574209935846524 12.3063
1 -0.0066076712357163404 -264.2362 0.63050921609794996 0 -1 0 0 0 -1 1 0 0 
1 -0.0066076712356030404 -20.650200000000002 0.63050921609799904 0 1 0 0 -0 1 1 0 -0 
Triangulations 0

TShapes 71
Ve
0.00417397951538668
-3.7320710541182 -65.1225070307411 -1.52320211908516
0 0

0101101
*
Ve
0.00456056455257051
-61.5169283077841 -264.2362 -34.9289531032395
0 0

0101101
*
Ed
 0.00417397951538668 1 1 0
1  1 0 0.00980459631915663 0.990196438507994
2  1 1 0 0.00980459631915663 0.990196438507994
2  2 2 0 0.00980459631915663 0.990196438507994
4 G2 1 0 2 0
0

0101000
+71 0 -70 0 *
Ve
0.00456056455257051
61.5037129653127 -264.2362 36.1899715354354
0 0

0101101
*
Ed
 0.00456056455252188 1 1 0
1  2 0 0 1
2  3 1 0 0 1
0

0101000
+70 0 -68 0 *
Ve
0.0041739795153699
3.71885571164692 -65.1225070307411 2.78422055128113
0 0

0101101
*
Ed
 0.0041739795153699 1 1 0
1  3 0 0.00980459631915646 0.990196438507994
2  4 1 0 0.00980459631915646 0.990196438507994
2  5 2 0 0.00980459631915646 0.990196438507994
4 G2 1 0 2 0
0

0101000
+66 0 -68 0 *
Ed
 1e-007 1 1 0
1  4 0 5.23655408710408 8.37814674069387
2  6 1 0 5.23655408710408 8.37814674069387
2  7 3 0 5.23655408710408 8.37814674069387
4 G1 1 0 3 0
0

0101000
+71 0 -66 0 *
Wi

0101100
+69 0 +67 0 -65 0 -64 0 *
Fa
0  1e-007 1 0

0111000
+63 0 *
Ve
1e-007
3.54475299454272 -64.3524748 2.68357079129788
0 0

0101101
*
Ed
 1e-007 1 1 0
1  5 0 5.77227507524327 6.28318530717959
2  8 3 0 5.77227507524327 6.28318530717959
2  9 4 0 5.77227507524327 6.28318530717959
4 CN 3 0 4 0
0

0101000
+66 0 -61 0 *
Ve
1e-007
-3.557968337014 -64.3524748 -1.42255235910191
0 0

0101101
*
Ed
 1e-007 1 1 0
1  6 0 0 3.14159265358979
2  10 3 0 0 3.14159265358979
2  11 5 0 0 3.14159265358979
4 G1 3 0 5 0
0

0101000
+59 0 -61 0 *
Ed
 1e-007 1 1 0
1  7 0 5.77227507524327 6.28318530717959
2  12 3 0 5.77227507524327 6.28318530717959
2  13 4 0 5.77227507524327 6.28318530717959
4 CN 3 0 4 0
0

0101000
+71 0 -59 0 *
Wi

0101100
+60 0 -58 0 -57 0 +64 0 *
Fa
0  1e-007 3 0

0111000
+56 0 *
Ve
1e-007
5.10339700995624 -60.0060308374026 3.58463166306362
0 0

0101101
*
Ed
 1e-007 1 1 0
1  8 0 0 0.785398163397436
2  14 5 0 0 0.785398163397436
2  15 6 0 0 0.785398163397436
4 CN 5 0 6 0
0

0101000
+61 0 -54 0 *
Ve
1e-007
-5.11661235242752 -60.0060308374026 -2.32361323086764
0 0

0101101
*
Ed
 1e-007 1 1 0
1  9 0 0 3.14159265358979
2  16 5 0 0 3.14159265358979
2  17 7 0 0 3.14159265358979
4 G1 5 0 7 0
0

0101000
+52 0 -54 0 *
Ed
 1e-007 1 1 0
1  10 0 0 0.785398163397436
2  18 5 0 0 0.785398163397436
2  19 6 0 0 0.785398163397436
4 CN 5 0 6 0
0

0101000
+59 0 -52 0 *
Wi

0101100
+53 0 -51 0 -50 0 +58 0 *
Fa
0  1e-007 5 0

0111000
+49 0 *
Ed
 1e-007 1 1 0
1  11 0 3.14159265358979 6.28318530717959
2  20 8 0 3.14159265358979 6.28318530717959
2  21 6 0 3.14159265358979 6.28318530717959
4 G1 8 0 6 0
0

0101000
+54 0 -52 0 *
Ve
1e-007
9.08238963293633 -55.4099823999653 5.88490967789989
0 0

0101101
*
Ed
 1e-007 1 1 0
1  12 0 0.129995880670887 6.62978991421833
2  22 8 0 0.129995880670887 6.62978991421833
2  23 7 0 0.129995880670887 6.62978991421833
4 CN 8 0 7 0
0

0101000
+54 0 -46 0 *
Ve
1e-007
-9.0956049754076 -55.4099823999653 -4.62389124570391
0 0

0101101
*
Ed
 1e-007 1 1 0
1  13 0 3.14159265358979 6.28318530717959
2  24 8 0 3.14159265358979 6.28318530717959
2  25 9 0 3.14159265358979 6.28318530717959
4 G1 8 0 9 0
0

0101000
+46 0 -44 0 *
Ed
 1e-007 1 1 0
1  14 0 0.12999588067089 6.62978991421832
2  26 8 0 0.12999588067089 6.62978991421832
2  27 7 0 0.12999588067089 6.62978991421832
4 G2 8 0 7 0
0

0101000
+52 0 -44 0 *
Wi

0101100
-47 0 +45 0 +43 0 -42 0 *
Fa
0  1e-007 8 0

0111000
+41 0 *
Ve
1e-007
10.6474743260994 -51.0455779251258 6.78969394169768
0 0

0101101
*
Ve
1e-007
-10.6606896685707 -51.0455779251258 -5.52867550950171
0 0

0101101
*
Ed
 1e-007 1 1 0
1  15 0 3.14159265358979 6.28318530717959
2  28 9 0 3.14159265358979 6.28318530717959
2  29 10 0 3.14159265358979 6.28318530717959
4 G1 9 0 10 0
0

0101000
+39 0 -38 0 *
Ed
 1e-007 1 1 0
1  16 0 3.14159265358979 3.92699081698722
2  30 9 0 3.14159265358979 3.92699081698722
2  31 11 0 3.14159265358979 3.92699081698722
4 CN 9 0 11 0
0

0101000
+38 0 -44 0 *
Ed
 1e-007 1 1 0
1  17 0 3.14159265358979 3.92699081698722
2  32 9 0 3.14159265358979 3.92699081698722
2  33 11 0 3.14159265358979 3.92699081698722
4 CN 9 0 11 0
0

0101000
+39 0 -46 0 *
Wi

0101100
+37 0 +36 0 -43 0 -35 0 *
Fa
0  1e-007 9 0

0111000
+34 0 *
Ve
1e-007
-10.6606896685707 -20.6502 -5.52867550950169
0 0

0101101
*
Ve
1e-007
10.6474743260995 -20.6502 6.78969394169769
0 0

0101101
*
Ed
 1e-007 1 1 0
1  18 0 4.1882238736653 7.3298165272551
2  34 10 0 4.1882238736653 7.3298165272551
0

0101000
+32 0 -31 0 *
Ed
 1e-007 1 1 0
1  19 0 47.31537146 77.7107493851258
2  35 10 0 47.31537146 77.7107493851258
2  36 12 0 47.31537146 77.7107493851258
4 CN 10 0 12 0
0

0101000
+32 0 -38 0 *
Ed
 1e-007 1 1 0
1  20 0 47.31537146 77.7107493851258
2  37 10 0 47.31537146 77.7107493851258
2  38 12 0 47.31537146 77.7107493851258
4 CN 10 0 12 0
0

0101000
+31 0 -39 0 *
Wi

0101100
-30 0 +29 0 -37 0 -28 0 *
Fa
0  1e-007 10 0

0111000
+27 0 *
Ed
 0.00456056455257051 1 1 0
1  21 0 0 1
2  39 2 0 0 1
0

0101000
+70 0 -68 0 *
Wi

0101100
+67 0 -25 0 *
Fa
0  1e-007 13 0

0111000
+24 0 *
Ed
 1e-007 1 1 0
1  22 0 2.09496143351428 5.23655408710408
2  40 2 0 2.09496143351428 5.23655408710408
2  41 4 0 2.09496143351428 5.23655408710408
4 G1 2 0 4 0
0

0101000
+66 0 -71 0 *
Wi

0101100
-25 0 -69 0 -22 0 +65 0 *
Fa
0  1e-007 2 0

0111000
+21 0 *
Ed
 1e-007 1 1 0
1  23 0 3.14159265358979 6.28318530717959
2  42 4 0 3.14159265358979 6.28318530717959
2  43 6 0 3.14159265358979 6.28318530717959
4 G1 4 0 6 0
0

0101000
+61 0 -59 0 *
Wi

0101100
-19 0 -60 0 +22 0 +57 0 *
Fa
0  1e-007 4 0

0111000
+18 0 *
Wi

0101100
-47 0 -53 0 +19 0 +50 0 *
Fa
0  1e-007 6 0

0111000
+16 0 *
Ed
 1e-007 1 1 0
1  24 0 0 3.14159265358979
2  44 7 0 0 3.14159265358979
2  45 11 0 0 3.14159265358979
4 G1 7 0 11 0
0

0101000
+44 0 -46 0 *
Wi

0101100
-45 0 -51 0 +42 0 +14 0 *
Fa
0  1e-007 7 0

0111000
+13 0 *
Ed
 1e-007 1 1 0
1  25 0 0 3.14159265358979
2  46 11 0 0 3.14159265358979
2  47 12 0 0 3.14159265358979
4 G1 11 0 12 0
0

0101000
+38 0 -39 0 *
Wi

0101100
-36 0 +11 0 +35 0 -14 0 *
Fa
0  1e-007 11 0

0111000
+10 0 *
Ed
 1e-007 1 1 0
1  26 0 1.04663122007551 4.1882238736653
2  48 12 0 1.04663122007551 4.1882238736653
0

0101000
+31 0 -32 0 *
Wi

0101100
-29 0 -8 0 +28 0 -11 0 *
Fa
0  1e-007 12 0

0111000
+7 0 *
Wi

0101100
+30 0 +8 0 *
Fa
0  1e-007 14 0

0111000
+5 0 *
Sh

0101100
-62 0 -55 0 -48 0 +40 0 +33 0 +26 0 +23 0 -20 0 -17 0 -15 0 
+12 0 +9 0 +6 0 +4 0 *
So

0100000
+3 0 *
Co

1100000
+2 0 *

+1 0 
##EGADS HEADER FILE-REV 1 ##
0
  1  1  14  14  26  14  3
1 5 1
_body
1
1 5 1
_brch
1
2 8 3
_tParams
 1.199744430255e+01  4.798977721019e-01  1.500000000000e+01 
    2 0 4
1 5 2
_body
1 1 
1 5 2
_brch
1 1 
1 7 3
_faceID
1 1 1 
1 5 1
_hist
1
    2 1 4
1 5 2
_body
1 2 
1 5 2
_brch
1 2 
1 7 3
_faceID
1 2 1 
1 5 1
_hist
1
    2 2 4
1 5 2
_body
1 3 
1 5 2
_brch
1 3 
1 7 3
_faceID
1 3 1 
1 5 1
_hist
1
    2 3 4
1 5 2
_body
1 4 
1 5 2
_brch
1 4 
1 7 3
_faceID
1 4 1 
1 5 1
_hist
1
    2 4 4
1 5 2
_body
1 5 
1 5 2
_brch
1 5 
1 7 3
_faceID
1 5 1 
1 5 1
_hist
1
    2 5 4
1 5 2
_body
1 6 
1 5 2
_brch
1 6 
1 7 3
_faceID
1 6 1 
1 5 1
_hist
1
    2 6 4
1 5 2
_body
1 7 
1 5 2
_brch
1 7 
1 7 3
_faceID
1 7 1 
1 5 1
_hist
1
    2 7 4
1 5 2
_body
1 8 
1 5 2
_brch
1 8 
1 7 3
_faceID
1 8 1 
1 5 1
_hist
1
    2 8 4
1 5 2
_body
1 9 
1 5 2
_brch
1 9 
1 7 3
_faceID
1 9 1 
1 5 1
_hist
1
    2 9 4
1 5 2
_body
1 10 
1 5 2
_brch
1 10 
1 7 3
_faceID
1 10 1 
1 5 1
_hist
1
    2 10 4
1 5 2
_body
1 11 
1 5 2
_brch
1 11 
1 7 3
_faceID
1 11 1 
1 5 1
_hist
1
    2 11 4
1 5 2
_body
1 12 
1 5 2
_brch
1 12 
1 7 3
_faceID
1 12 1 
1 5 1
_hist
1
    2 12 4
1 5 2
_body
1 13 
1 5 2
_brch
1 13 
1 7 3
_faceID
1 13 1 
1 5 1
_hist
1
    2 13 4
1 5 2
_body
1 14 
1 5 2
_brch
1 14 
1 7 3
_faceID
1 14 1 
1 5 1
_hist
1
    4 0 3
1 5 2
_body
1 108 
1 7 5
_edgeID
1 1 1 8 1 
1 6 1
_nface
2
    4 1 3
1 5 2
_body
1 107 
1 7 5
_edgeID
1 1 1 7 1 
1 6 1
_nface
2
    4 2 3
1 5 2
_body
1 108 
1 7 5
_edgeID
1 1 1 8 2 
1 6 1
_nface
2
    4 3 3
1 5 2
_body
1 102 
1 7 5
_edgeID
1 1 1 2 1 
1 6 1
_nface
2
    4 4 3
1 5 2
_body
1 209 
1 7 5
_edgeID
1 2 1 9 2 
1 6 1
_nface
2
    4 5 3
1 5 2
_body
1 203 
1 7 5
_edgeID
1 2 1 3 1 
1 6 1
_nface
2
    4 6 3
1 5 2
_body
1 209 
1 7 5
_edgeID
1 2 1 9 1 
1 6 1
_nface
2
    4 7 3
1 5 2
_body
1 310 
1 7 5
_edgeID
1 3 1 10 2 
1 6 1
_nface
2
    4 8 3
1 5 2
_body
1 311 
1 7 5
_edgeID
1 3 1 11 1 
1 6 1
_nface
2
    4 9 3
1 5 2
_body
1 310 
1 7 5
_edgeID
1 3 1 10 1 
1 6 1
_nface
2
    4 10 3
1 5 2
_body
1 410 
1 7 5
_edgeID
1 4 1 10 1 
1 6 1
_nface
2
    4 11 3
1 5 2
_body
1 411 
1 7 5
_edgeID
1 4 1 11 2 
1 6 1
_nface
2
    4 12 3
1 5 2
_body
1 405 
1 7 5
_edgeID
1 4 1 5 1 
1 6 1
_nface
2
    4 13 3
1 5 2
_body
1 411 
1 7 5
_edgeID
1 4 1 11 1 
1 6 1
_nface
2
    4 14 3
1 5 2
_body
1 506 
1 7 5
_edgeID
1 5 1 6 1 
1 6 1
_nface
2
    4 15 3
1 5 2
_body
1 512 
1 7 5
_edgeID
1 5 1 12 1 
1 6 1
_nface
2
    4 16 3
1 5 2
_body
1 512 
1 7 5
_edgeID
1 5 1 12 2 
1 6 1
_nface
2
    4 17 3
1 5 2
_body
1 614 
1 7 5
_edgeID
1 6 1 14 1 
1 6 1
_nface
2
    4 18 3
1 5 2
_body
1 613 
1 7 5
_edgeID
1 6 1 13 1 
1 6 1
_nface
2
    4 19 3
1 5 2
_body
1 613 
1 7 5
_edgeID
1 6 1 13 2 
1 6 1
_nface
2
    4 20 3
1 5 2
_body
1 708 
1 7 5
_edgeID
1 7 1 8 1 
1 6 1
_nface
2
    4 21 3
1 5 2
_body
1 809 
1 7 5
_edgeID
1 8 1 9 1 
1 6 1
_nface
2
    4 22 3
1 5 2
_body
1 910 
1 7 5
_edgeID
1 9 1 10 1 
1 6 1
_nface
2
    4 23 3
1 5 2
_body
1 1112 
1 7 5
_edgeID
1 11 1 12 1 
1 6 1
_nface
2
    4 24 3
1 5 2
_body
1 1213 
1 7 5
_edgeID
1 12 1 13 1 
1 6 1
_nface
2
    4 25 3
1 5 2
_body
1 1314 
1 7 5
_edgeID
1 13 1 14 1 
1 6 1
_nface
2
    5 0 2
1 7 1
_nodeID
1
1 6 1
_nedge
4
    5 1 2
1 7 1
_nodeID
2
1 6 1
_nedge
3
    5 2 2
1 7 1
_nodeID
3
1 6 1
_nedge
3
    5 3 2
1 7 1
_nodeID
4
1 6 1
_nedge
4
    5 4 2
1 7 1
_nodeID
5
1 6 1
_nedge
4
    5 5 2
1 7 1
_nodeID
6
1 6 1
_nedge
4
    5 6 2
1 7 1
_nodeID
7
1 6 1
_nedge
4
    5 7 2
1 7 1
_nodeID
8
1 6 1
_nedge
4
    5 8 2
1 7 1
_nodeID
9
1 6 1
_nedge
4
    5 9 2
1 7 1
_nodeID
10
1 6 1
_nedge
4
    5 10 2
1 7 1
_nodeID
11
1 6 1
_nedge
4
    5 11 2
1 7 1
_nodeID
12
1 6 1
_nedge
4
    5 12 2
1 7 1
_nodeID
13
1 6 1
_nedge
3
    5 13 2
1 7 1
_nodeID
14
1 6 1
_nedge
3
    0 0 0
