Data from Parasolid IGES Translator 17.0.34, Copyright(c) 2006 Siemens PS      1
LM Software. All Rights Reserved.                                       S      2
1H,,1H;,19HFEMAP Version 11.11,18Hsphere_example.igs,27HBy Siemens PLM IG      1
ncorporated,26HXPlus GENERIC/IGES 17.0.34,32,38, 6,308,15,6HNoname,     G      2
1.000,6,1HM,1,1.000,15H20201228.095406,1.0e-008,0.00,6HNoname,6HNoname, G      3
11,0,15H20201228.095406;                                                G      4
     314       1       0       1       0       0       0       000010001D      1
     314       1       0       1       0       0       0               0D      2
     116       2       0       1       0       0       0       000010001D      3
     116       1       0       1       0       0       0               0D      4
     123       3       0       1       0       0       0       000010201D      5
     123       1       0       1       0       0       0               0D      6
     123       4       0       1       0       0       0       000010201D      7
     123       1       0       1       0       0       0               0D      8
     196       5       0       1       0       0       0       000010001D      9
     196       1       0       1       1       0       0               0D     10
     100       6       0       1       0       0       0       000010001D     11
     100       1       0       1       0       0       0               0D     12
     502       7       0       1       0       0       0       000010001D     13
     502       1       0       3       1       0       0               0D     14
     100      10       0       1       0       0       0       000010001D     15
     100       1       0       1       0       0       0               0D     16
     100      11       0       1       0       0       0       000010001D     17
     100       1       0       1       0       0       0               0D     18
     100      12       0       1       0       0       0       000010001D     19
     100       1       0       1       0       0       0               0D     20
     124      13       0       1       0       0       0       000010001D     21
     124       1       0       1       0       0       0               0D     22
     100      14       0       1       0       0      21       000010001D     23
     100       1       0       1       0       0       0               0D     24
     124      15       0       1       0       0       0       000010001D     25
     124       1       0       1       0       0       0               0D     26
     100      16       0       1       0       0      25       000010001D     27
     100       1       0       1       0       0       0               0D     28
     124      17       0       1       0       0       0       000010001D     29
     124       1       0       1       0       0       0               0D     30
     100      18       0       1       0       0      29       000010001D     31
     100       1       0       1       0       0       0               0D     32
     124      19       0       1       0       0       0       000010001D     33
     124       1       0       1       0       0       0               0D     34
     100      20       0       1       0       0      33       000010001D     35
     100       1       0       1       0       0       0               0D     36
     124      21       0       1       0       0       0       000010001D     37
     124       1       0       1       0       0       0               0D     38
     100      22       0       1       0       0      37       000010001D     39
     100       1       0       1       0       0       0               0D     40
     124      23       0       1       0       0       0       000010001D     41
     124       1       0       1       0       0       0               0D     42
     100      24       0       1       0       0      41       000010001D     43
     100       1       0       1       0       0       0               0D     44
     124      25       0       1       0       0       0       000010001D     45
     124       1       0       1       0       0       0               0D     46
     100      26       0       1       0       0      45       000010001D     47
     100       1       0       1       0       0       0               0D     48
     124      27       0       1       0       0       0       000010001D     49
     124       1       0       1       0       0       0               0D     50
     100      28       0       1       0       0      49       000010001D     51
     100       1       0       1       0       0       0               0D     52
     504      29       0       1       0       0       0       000010001D     53
     504       1       0       3       1       0       0               0D     54
     508      32       0       1       0       0       0       000010001D     55
     508       1       0       1       1       0       0               0D     56
     510      33       0       1       0       0       0       000010001D     57
     510       1      -1       1       1       0       0               0D     58
     314      34       0       1       0       0       0       000010001D     59
     314       1       0       1       0       0       0               0D     60
     116      35       0       1       0       0       0       000010001D     61
     116       1       0       1       0       0       0               0D     62
     123      36       0       1       0       0       0       000010201D     63
     123       1       0       1       0       0       0               0D     64
     123      37       0       1       0       0       0       000010201D     65
     123       1       0       1       0       0       0               0D     66
     196      38       0       1       0       0       0       000010001D     67
     196       1       0       1       1       0       0               0D     68
     508      39       0       1       0       0       0       000010001D     69
     508       1       0       1       1       0       0               0D     70
     510      40       0       1       0       0       0       000010001D     71
     510       1     -59       1       1       0       0               0D     72
     314      41       0       1       0       0       0       000010001D     73
     314       1       0       1       0       0       0               0D     74
     116      42       0       1       0       0       0       000010001D     75
     116       1       0       1       0       0       0               0D     76
     123      43       0       1       0       0       0       000010201D     77
     123       1       0       1       0       0       0               0D     78
     123      44       0       1       0       0       0       000010201D     79
     123       1       0       1       0       0       0               0D     80
     196      45       0       1       0       0       0       000010001D     81
     196       1       0       1       1       0       0               0D     82
     508      46       0       1       0       0       0       000010001D     83
     508       1       0       1       1       0       0               0D     84
     510      47       0       1       0       0       0       000010001D     85
     510       1     -73       1       1       0       0               0D     86
     314      48       0       1       0       0       0       000010001D     87
     314       1       0       1       0       0       0               0D     88
     116      49       0       1       0       0       0       000010001D     89
     116       1       0       1       0       0       0               0D     90
     123      50       0       1       0       0       0       000010201D     91
     123       1       0       1       0       0       0               0D     92
     123      51       0       1       0       0       0       000010201D     93
     123       1       0       1       0       0       0               0D     94
     196      52       0       1       0       0       0       000010001D     95
     196       1       0       1       1       0       0               0D     96
     508      53       0       1       0       0       0       000010001D     97
     508       1       0       1       1       0       0               0D     98
     510      54       0       1       0       0       0       000010001D     99
     510       1     -87       1       1       0       0               0D    100
     314      55       0       1       0       0       0       000010001D    101
     314       1       0       1       0       0       0               0D    102
     116      56       0       1       0       0       0       000010001D    103
     116       1       0       1       0       0       0               0D    104
     123      57       0       1       0       0       0       000010201D    105
     123       1       0       1       0       0       0               0D    106
     123      58       0       1       0       0       0       000010201D    107
     123       1       0       1       0       0       0               0D    108
     196      59       0       1       0       0       0       000010001D    109
     196       1       0       1       1       0       0               0D    110
     508      60       0       1       0       0       0       000010001D    111
     508       1       0       1       1       0       0               0D    112
     510      61       0       1       0       0       0       000010001D    113
     510       1    -101       1       1       0       0               0D    114
     314      62       0       1       0       0       0       000010001D    115
     314       1       0       1       0       0       0               0D    116
     116      63       0       1       0       0       0       000010001D    117
     116       1       0       1       0       0       0               0D    118
     123      64       0       1       0       0       0       000010201D    119
     123       1       0       1       0       0       0               0D    120
     123      65       0       1       0       0       0       000010201D    121
     123       1       0       1       0       0       0               0D    122
     196      66       0       1       0       0       0       000010001D    123
     196       1       0       1       1       0       0               0D    124
     508      67       0       1       0       0       0       000010001D    125
     508       1       0       1       1       0       0               0D    126
     510      68       0       1       0       0       0       000010001D    127
     510       1    -115       1       1       0       0               0D    128
     314      69       0       1       0       0       0       000010001D    129
     314       1       0       1       0       0       0               0D    130
     116      70       0       1       0       0       0       000010001D    131
     116       1       0       1       0       0       0               0D    132
     123      71       0       1       0       0       0       000010201D    133
     123       1       0       1       0       0       0               0D    134
     123      72       0       1       0       0       0       000010201D    135
     123       1       0       1       0       0       0               0D    136
     196      73       0       1       0       0       0       000010001D    137
     196       1       0       1       1       0       0               0D    138
     508      74       0       1       0       0       0       000010001D    139
     508       1       0       1       1       0       0               0D    140
     510      75       0       1       0       0       0       000010001D    141
     510       1    -129       1       1       0       0               0D    142
     314      76       0       1       0       0       0       000010001D    143
     314       1       0       1       0       0       0               0D    144
     116      77       0       1       0       0       0       000010001D    145
     116       1       0       1       0       0       0               0D    146
     123      78       0       1       0       0       0       000010201D    147
     123       1       0       1       0       0       0               0D    148
     123      79       0       1       0       0       0       000010201D    149
     123       1       0       1       0       0       0               0D    150
     196      80       0       1       0       0       0       000010001D    151
     196       1       0       1       1       0       0               0D    152
     508      81       0       1       0       0       0       000010001D    153
     508       1       0       1       1       0       0               0D    154
     510      82       0       1       0       0       0       000010001D    155
     510       1    -143       1       1       0       0               0D    156
     514      83       0       1       0       0       0       000010001D    157
     514       1       0       1       1       0       0               0D    158
     186      84       0       1       0       0       0       000000001D    159
     186       1       0       1       0       0       0       1       0D    160
314,0.,50.1960813999176,50.1960813999176,10HMixedColor;                1P      1
116,0.,0.,0.;                                                          3P      2
123,0.,0.,1.;                                                          5P      3
123,1.,0.,0.;                                                          7P      4
196,3,0.0254000508001,5,7;                                             9P      5
100,0.,0.,0.,-0.,-0.0254000508001,0.0254000508001,-0.;                11P      6
502,6,0.,0.,-0.0254000508001,-0.,-0.0254000508001,0.,0.,              13P      7
0.0254000508001,0.,0.,0.,0.0254000508001,-0.0254000508001,0.,0.,      13P      8
0.0254000508001,0.,0.;                                                13P      9
100,0.,0.,0.,0.,0.0254000508001,-0.0254000508001,0.;                  15P     10
100,0.,0.,0.,-0.0254000508001,0.,-0.,-0.0254000508001;                17P     11
100,0.,0.,0.,0.0254000508001,0.,0.,0.0254000508001;                   19P     12
124,0.,0.,1.,0.,1.,0.,-0.,0.,0.,1.,0.,0.;                             21P     13
100,0.,0.,0.,-0.,-0.0254000508001,0.0254000508001,-0.;                23P     14
124,0.,0.,1.,0.,1.,0.,-0.,0.,0.,1.,0.,0.;                             25P     15
100,0.,0.,0.,0.0254000508001,0.,0.,0.0254000508001;                   27P     16
124,-0.,0.,-1.,0.,-1.,0.,0.,0.,0.,1.,0.,0.;                           29P     17
100,0.,0.,0.,-0.,-0.0254000508001,0.0254000508001,-0.;                31P     18
124,-0.,0.,-1.,0.,-1.,0.,0.,0.,0.,1.,0.,0.;                           33P     19
100,0.,0.,0.,0.0254000508001,0.,0.,0.0254000508001;                   35P     20
124,-1.,0.,0.,0.,0.,0.,1.,0.,0.,1.,0.,0.;                             37P     21
100,0.,0.,0.,-0.,-0.0254000508001,0.0254000508001,-0.;                39P     22
124,-1.,0.,0.,0.,0.,0.,1.,0.,0.,1.,0.,0.;                             41P     23
100,0.,0.,0.,0.0254000508001,0.,-0.,0.0254000508001;                  43P     24
124,0.,1.,0.,0.,0.,0.,-1.,0.,-1.,0.,0.,0.;                            45P     25
100,0.,0.,0.,0.0254000508001,0.,0.,0.0254000508001;                   47P     26
124,0.,1.,0.,0.,0.,0.,-1.,0.,-1.,0.,0.,0.;                            49P     27
100,0.,0.,0.,0.,0.0254000508001,-0.0254000508001,0.;                  51P     28
504,12,11,13,2,13,6,15,13,3,13,5,17,13,5,13,2,19,13,6,13,3,23,        53P     29
13,1,13,3,27,13,3,13,4,31,13,1,13,2,35,13,2,13,4,39,13,1,13,5,        53P     30
43,13,5,13,4,47,13,1,13,6,51,13,6,13,4;                               53P     31
508,3,0,53,6,0,0,0,53,2,1,0,0,53,10,1,0;                              55P     32
510,9,1,1,55;                                                         57P     33
314,0.,50.1960813999176,50.1960813999176,10HMixedColor;               59P     34
116,0.,0.,0.;                                                         61P     35
123,0.,0.,1.;                                                         63P     36
123,1.,0.,0.;                                                         65P     37
196,61,0.0254000508001,63,65;                                         67P     38
508,3,0,53,10,0,0,0,53,3,1,0,0,53,8,1,0;                              69P     39
510,67,1,1,69;                                                        71P     40
314,0.,50.1960813999176,50.1960813999176,10HMixedColor;               73P     41
116,0.,0.,0.;                                                         75P     42
123,0.,0.,1.;                                                         77P     43
123,1.,0.,0.;                                                         79P     44
196,75,0.0254000508001,77,79;                                         81P     45
508,3,0,53,8,0,0,0,53,1,1,0,0,53,12,1,0;                              83P     46
510,81,1,1,83;                                                        85P     47
314,0.,50.1960813999176,50.1960813999176,10HMixedColor;               87P     48
116,0.,0.,0.;                                                         89P     49
123,0.,0.,1.;                                                         91P     50
123,1.,0.,0.;                                                         93P     51
196,89,0.0254000508001,91,93;                                         95P     52
508,3,0,53,1,0,0,0,53,7,0,0,0,53,11,1,0;                              97P     53
510,95,1,1,97;                                                        99P     54
314,0.,50.1960813999176,50.1960813999176,10HMixedColor;              101P     55
116,0.,0.,0.;                                                        103P     56
123,0.,0.,1.;                                                        105P     57
123,1.,0.,0.;                                                        107P     58
196,103,0.0254000508001,105,107;                                     109P     59
508,3,0,53,2,0,0,0,53,5,0,0,0,53,9,1,0;                              111P     60
510,109,1,1,111;                                                     113P     61
314,0.,50.1960813999176,50.1960813999176,10HMixedColor;              115P     62
116,0.,0.,0.;                                                        117P     63
123,0.,0.,1.;                                                        119P     64
123,1.,0.,0.;                                                        121P     65
196,117,0.0254000508001,119,121;                                     123P     66
508,3,0,53,3,0,0,0,53,9,0,0,0,53,7,1,0;                              125P     67
510,123,1,1,125;                                                     127P     68
314,0.,50.1960813999176,50.1960813999176,10HMixedColor;              129P     69
116,0.,0.,0.;                                                        131P     70
123,0.,0.,1.;                                                        133P     71
123,1.,0.,0.;                                                        135P     72
196,131,0.0254000508001,133,135;                                     137P     73
508,3,0,53,4,0,0,0,53,11,0,0,0,53,5,1,0;                             139P     74
510,137,1,1,139;                                                     141P     75
314,0.,50.1960813999176,50.1960813999176,10HMixedColor;              143P     76
116,0.,0.,0.;                                                        145P     77
123,0.,0.,1.;                                                        147P     78
123,1.,0.,0.;                                                        149P     79
196,145,0.0254000508001,147,149;                                     151P     80
508,3,0,53,12,0,0,0,53,4,1,0,0,53,6,1,0;                             153P     81
510,151,1,1,153;                                                     155P     82
514,8,57,1,71,1,85,1,99,1,113,1,127,1,141,1,155,1;                   157P     83
186,157,1,0;                                                         159P     84
S      2G      4D    160P     84                                        T      1
