DBRep_DrawableShape

CASCADE Topology V1, (c) Matra-Datavision
Locations 0
Curve2ds 32
1 3.1415926535897931 1.5707963267948966 -1 0 
7 0 0  3 25 23  1.5707963267948966 0  1.5707963267948966 0.023799944345377227  1.5707963267948968 0.071399833036131663  1.5707963267948959 0.14279966607226327  1.5707963267948966 0.21419949910839506  1.5707963267948966 0.28559933214452649  1.5707963267948963 0.35699916518065855  1.5707963267948968 0.42839899821678978  1.5707963267948966 0.49979883125292174  1.5707963267948966 0.57119866428905308  1.5707963267948966 0.64259849732518504  1.5707963267948968 0.71399833036131677  1.5707963267948963 0.78539816339744817  1.5707963267948968 0.85679799643358012  1.5707963267948961 0.92819782946971152  1.5707963267948963 0.99959766250584303  1.5707963267948966 1.0709974955419752  1.5707963267948966 1.1423973285781064  1.5707963267948968 1.2137971616142385  1.5707963267948966 1.2851969946503701  1.5707963267948966 1.3565968276865015  1.5707963267948963 1.4279966607226331  1.5707963267948968 1.4993964937587654  1.5707963267948966 1.5469963824495192  1.5707963267948966 1.5707963267948966 
 0 4 0.071399833036131663 1 0.14279966607226333 1 0.21419949910839498 1 0.28559933214452665 1 0.35699916518065833 1 0.42839899821678995 1 0.49979883125292163 1 0.5711986642890533 1 0.64259849732518493 1 0.71399833036131666 1 0.78539816339744828 1 0.8567979964335799 1 0.92819782946971163 1 0.99959766250584325 1 1.070997495541975 1 1.1423973285781066 1 1.2137971616142382 1 1.2851969946503699 1 1.3565968276865017 1 1.4279966607226333 1 1.4993964937587649 1 1.5707963267948966 4
7 0 0  3 25 23  1.5707963267948966 0  1.5707963267948966 0.023799944345377227  1.5707963267948968 0.071399833036131663  1.5707963267948959 0.14279966607226327  1.5707963267948966 0.21419949910839506  1.5707963267948966 0.28559933214452649  1.5707963267948963 0.35699916518065855  1.5707963267948968 0.42839899821678978  1.5707963267948966 0.49979883125292174  1.5707963267948966 0.57119866428905308  1.5707963267948966 0.64259849732518504  1.5707963267948968 0.71399833036131677  1.5707963267948963 0.78539816339744817  1.5707963267948968 0.85679799643358012  1.5707963267948961 0.92819782946971152  1.5707963267948963 0.99959766250584303  1.5707963267948966 1.0709974955419752  1.5707963267948966 1.1423973285781064  1.5707963267948968 1.2137971616142385  1.5707963267948966 1.2851969946503701  1.5707963267948966 1.3565968276865015  1.5707963267948963 1.4279966607226331  1.5707963267948968 1.4993964937587654  1.5707963267948966 1.5469963824495192  1.5707963267948966 1.5707963267948966 
 0 4 0.071399833036131663 1 0.14279966607226333 1 0.21419949910839498 1 0.28559933214452665 1 0.35699916518065833 1 0.42839899821678995 1 0.49979883125292163 1 0.5711986642890533 1 0.64259849732518493 1 0.71399833036131666 1 0.78539816339744828 1 0.8567979964335799 1 0.92819782946971163 1 0.99959766250584325 1 1.070997495541975 1 1.1423973285781066 1 1.2137971616142382 1 1.2851969946503699 1 1.3565968276865017 1 1.4279966607226333 1 1.4993964937587649 1 1.5707963267948966 4
7 0 0  3 25 23  1.5707963267948966 0  1.5945962711402737 0  1.642196159831028 0  1.7135959928671602 0  1.784995825903291 0  1.8563956589394235 0  1.9277954919755551 0  1.9991953250116863 0  2.0705951580478184 0  2.14199499108395 0  2.2133948241200816 0  2.2847946571562128 0  2.3561944901923448 0  2.427594323228476 0  2.4989941562646081 0  2.5703939893007397 0  2.6417938223368713 0  2.7131936553730034 0  2.784593488409135 0  2.8559933214452666 0  2.9273931544813987 0  2.998792987517529 0  3.0701928205536615 0  3.1177927092444158 -0  3.1415926535897931 0 
 1.5707963267948966 4 1.6421961598310282 1 1.7135959928671598 1 1.7849958259032914 1 1.8563956589394233 1 1.9277954919755549 1 1.9991953250116865 1 2.0705951580478184 1 2.14199499108395 1 2.2133948241200816 1 2.2847946571562132 1 2.3561944901923448 1 2.4275943232284765 1 2.4989941562646081 1 2.5703939893007397 1 2.6417938223368713 1 2.7131936553730034 1 2.7845934884091346 1 2.8559933214452666 1 2.9273931544813983 1 2.9987929875175299 1 3.0701928205536615 1 3.1415926535897931 4
7 0 0  3 25 23  1.5707963267948966 0  1.5945962711402737 0  1.642196159831028 0  1.7135959928671602 0  1.784995825903291 0  1.8563956589394235 0  1.9277954919755551 0  1.9991953250116863 0  2.0705951580478184 0  2.14199499108395 0  2.2133948241200816 0  2.2847946571562128 0  2.3561944901923448 0  2.427594323228476 0  2.4989941562646081 0  2.5703939893007397 0  2.6417938223368713 0  2.7131936553730034 0  2.784593488409135 0  2.8559933214452666 0  2.9273931544813987 0  2.998792987517529 0  3.0701928205536615 0  3.1177927092444158 -0  3.1415926535897931 0 
 1.5707963267948966 4 1.6421961598310282 1 1.7135959928671598 1 1.7849958259032914 1 1.8563956589394233 1 1.9277954919755549 1 1.9991953250116865 1 2.0705951580478184 1 2.14199499108395 1 2.2133948241200816 1 2.2847946571562132 1 2.3561944901923448 1 2.4275943232284765 1 2.4989941562646081 1 2.5703939893007397 1 2.6417938223368713 1 2.7131936553730034 1 2.7845934884091346 1 2.8559933214452666 1 2.9273931544813983 1 2.9987929875175299 1 3.0701928205536615 1 3.1415926535897931 4
7 0 0  3 25 23  3.1415926535897931 0  3.1415926535897927 0.023799944345377241  3.1415926535897927 0.071399833036131691  3.1415926535897936 0.14279966607226335  3.1415926535897931 0.21419949910839506  3.1415926535897931 0.2855993321445266  3.1415926535897931 0.3569991651806585  3.1415926535897927 0.42839899821678995  3.1415926535897931 0.49979883125292179  3.1415926535897931 0.5711986642890533  3.1415926535897931 0.64259849732518515  3.1415926535897936 0.71399833036131666  3.1415926535897936 0.78539816339744872  3.1415926535897927 0.85679799643358012  3.1415926535897931 0.92819782946971174  3.1415926535897927 0.99959766250584337  3.1415926535897931 1.0709974955419752  3.1415926535897931 1.1423973285781068  3.1415926535897936 1.2137971616142387  3.1415926535897931 1.2851969946503699  3.1415926535897931 1.3565968276865019  3.1415926535897927 1.4279966607226333  3.1415926535897936 1.4993964937587658  3.1415926535897931 1.5469963824495192  3.1415926535897931 1.5707963267948966 
 0 4 0.071399833036131677 1 0.14279966607226335 1 0.21419949910839503 1 0.28559933214452671 1 0.35699916518065838 1 0.42839899821679006 1 0.49979883125292174 1 0.57119866428905341 1 0.64259849732518504 1 0.71399833036131677 1 0.7853981633974485 1 0.85679799643358012 1 0.92819782946971174 1 0.99959766250584348 1 1.0709974955419752 1 1.1423973285781068 1 1.2137971616142385 1 1.2851969946503701 1 1.3565968276865019 1 1.4279966607226335 1 1.4993964937587652 1 1.5707963267948968 4
7 0 0  3 25 23  3.1415926535897931 0  3.1415926535897927 0.023799944345377241  3.1415926535897927 0.071399833036131691  3.1415926535897936 0.14279966607226335  3.1415926535897931 0.21419949910839506  3.1415926535897931 0.2855993321445266  3.1415926535897931 0.3569991651806585  3.1415926535897927 0.42839899821678995  3.1415926535897931 0.49979883125292179  3.1415926535897931 0.5711986642890533  3.1415926535897931 0.64259849732518515  3.1415926535897936 0.71399833036131666  3.1415926535897936 0.78539816339744872  3.1415926535897927 0.85679799643358012  3.1415926535897931 0.92819782946971174  3.1415926535897927 0.99959766250584337  3.1415926535897931 1.0709974955419752  3.1415926535897931 1.1423973285781068  3.1415926535897936 1.2137971616142387  3.1415926535897931 1.2851969946503699  3.1415926535897931 1.3565968276865019  3.1415926535897927 1.4279966607226333  3.1415926535897936 1.4993964937587658  3.1415926535897931 1.5469963824495192  3.1415926535897931 1.5707963267948966 
 0 4 0.071399833036131677 1 0.14279966607226335 1 0.21419949910839503 1 0.28559933214452671 1 0.35699916518065838 1 0.42839899821679006 1 0.49979883125292174 1 0.57119866428905341 1 0.64259849732518504 1 0.71399833036131677 1 0.7853981633974485 1 0.85679799643358012 1 0.92819782946971174 1 0.99959766250584348 1 1.0709974955419752 1 1.1423973285781068 1 1.2137971616142385 1 1.2851969946503701 1 1.3565968276865019 1 1.4279966607226335 1 1.4993964937587652 1 1.5707963267948968 4
1 4.7123889803846897 1.5707963267948966 -1 0 
7 0 0  3 25 23  3.1415926535897931 0  3.16539259793517 0  3.2129924866259238 0  3.2843923196620559 0  3.355792152698188 0  3.4271919857343183 0  3.4985918187704526 0  3.5699916518065828 0  3.641391484842714 0  3.7127913178788461 0  3.7841911509149773 0  3.8555909839511089 0  3.9269908169872401 0  3.9983906500233743 0  4.0697904830595029 0  4.1411903160956385 0  4.2125901491317661 0  4.2839899821678999 0  4.3553898152040302 0  4.4267896482401632 0  4.4981894812762953 0  4.5695893143124255 0  4.6409891473485594 0  4.6885890360393123 -0  4.7123889803846897 0 
 3.1415926535897931 4 3.2129924866259247 1 3.2843923196620564 1 3.355792152698188 1 3.4271919857343196 1 3.4985918187704517 1 3.5699916518065828 1 3.6413914848427149 1 3.7127913178788465 1 3.7841911509149782 1 3.8555909839511098 1 3.9269908169872414 1 3.998390650023373 1 4.0697904830595046 1 4.1411903160956367 1 4.2125901491317679 1 4.2839899821678999 1 4.3553898152040311 1 4.4267896482401632 1 4.4981894812762953 1 4.5695893143124264 1 4.6409891473485576 1 4.7123889803846897 4
7 0 0  3 25 23  3.1415926535897931 0  3.16539259793517 0  3.2129924866259238 0  3.2843923196620559 0  3.355792152698188 0  3.4271919857343183 0  3.4985918187704526 0  3.5699916518065828 0  3.641391484842714 0  3.7127913178788461 0  3.7841911509149773 0  3.8555909839511089 0  3.9269908169872401 0  3.9983906500233743 0  4.0697904830595029 0  4.1411903160956385 0  4.2125901491317661 0  4.2839899821678999 0  4.3553898152040302 0  4.4267896482401632 0  4.4981894812762953 0  4.5695893143124255 0  4.6409891473485594 0  4.6885890360393123 -0  4.7123889803846897 0 
 3.1415926535897931 4 3.2129924866259247 1 3.2843923196620564 1 3.355792152698188 1 3.4271919857343196 1 3.4985918187704517 1 3.5699916518065828 1 3.6413914848427149 1 3.7127913178788465 1 3.7841911509149782 1 3.8555909839511098 1 3.9269908169872414 1 3.998390650023373 1 4.0697904830595046 1 4.1411903160956367 1 4.2125901491317679 1 4.2839899821678999 1 4.3553898152040311 1 4.4267896482401632 1 4.4981894812762953 1 4.5695893143124264 1 4.6409891473485576 1 4.7123889803846897 4
7 0 0  3 25 23  4.7123889803846897 0  4.7123889803846897 0.023799944345377227  4.7123889803846897 0.071399833036131663  4.7123889803846888 0.14279966607226327  4.7123889803846897 0.21419949910839506  4.7123889803846906 0.28559933214452649  4.7123889803846888 0.35699916518065855  4.7123889803846906 0.42839899821678978  4.7123889803846906 0.49979883125292174  4.7123889803846888 0.57119866428905308  4.7123889803846906 0.64259849732518504  4.7123889803846888 0.71399833036131677  4.7123889803846897 0.78539816339744817  4.7123889803846897 0.85679799643358012  4.7123889803846897 0.92819782946971152  4.7123889803846897 0.99959766250584303  4.7123889803846888 1.0709974955419752  4.7123889803846897 1.1423973285781064  4.7123889803846906 1.2137971616142385  4.7123889803846906 1.2851969946503701  4.7123889803846888 1.3565968276865015  4.7123889803846897 1.4279966607226331  4.7123889803846897 1.4993964937587654  4.7123889803846906 1.5469963824495192  4.7123889803846897 1.5707963267948966 
 0 4 0.071399833036131663 1 0.14279966607226333 1 0.21419949910839498 1 0.28559933214452665 1 0.35699916518065833 1 0.42839899821678995 1 0.49979883125292163 1 0.5711986642890533 1 0.64259849732518493 1 0.71399833036131666 1 0.78539816339744828 1 0.8567979964335799 1 0.92819782946971163 1 0.99959766250584325 1 1.070997495541975 1 1.1423973285781066 1 1.2137971616142382 1 1.2851969946503699 1 1.3565968276865017 1 1.4279966607226333 1 1.4993964937587649 1 1.5707963267948966 4
7 0 0  3 25 23  4.7123889803846897 0  4.7123889803846897 0.023799944345377227  4.7123889803846897 0.071399833036131663  4.7123889803846888 0.14279966607226327  4.7123889803846897 0.21419949910839506  4.7123889803846906 0.28559933214452649  4.7123889803846888 0.35699916518065855  4.7123889803846906 0.42839899821678978  4.7123889803846906 0.49979883125292174  4.7123889803846888 0.57119866428905308  4.7123889803846906 0.64259849732518504  4.7123889803846888 0.71399833036131677  4.7123889803846897 0.78539816339744817  4.7123889803846897 0.85679799643358012  4.7123889803846897 0.92819782946971152  4.7123889803846897 0.99959766250584303  4.7123889803846888 1.0709974955419752  4.7123889803846897 1.1423973285781064  4.7123889803846906 1.2137971616142385  4.7123889803846906 1.2851969946503701  4.7123889803846888 1.3565968276865015  4.7123889803846897 1.4279966607226331  4.7123889803846897 1.4993964937587654  4.7123889803846906 1.5469963824495192  4.7123889803846897 1.5707963267948966 
 0 4 0.071399833036131663 1 0.14279966607226333 1 0.21419949910839498 1 0.28559933214452665 1 0.35699916518065833 1 0.42839899821678995 1 0.49979883125292163 1 0.5711986642890533 1 0.64259849732518493 1 0.71399833036131666 1 0.78539816339744828 1 0.8567979964335799 1 0.92819782946971163 1 0.99959766250584325 1 1.070997495541975 1 1.1423973285781066 1 1.2137971616142382 1 1.2851969946503699 1 1.3565968276865017 1 1.4279966607226333 1 1.4993964937587649 1 1.5707963267948966 4
1 6.2831853071795862 1.5707963267948966 -1 0 
7 0 0  3 25 23  4.7123889803846897 0  4.736188924730067 0  4.7837888134208217 0  4.8551886464569529 0  4.926588479493085 0  4.9979883125292162 0  5.0693881455653473 0  5.1407879786014794 0  5.2121878116376106 0  5.2835876446737426 0  5.3549874777098747 0  5.4263873107460077 0  5.497787143782138 0  5.5691869768182691 0  5.640586809854403 0  5.7119866428905324 0  5.7833864759266644 0  5.8547863089627974 0  5.9261861419989268 0  5.9975859750350597 0  6.0689858080711918 0  6.1403856411073212 0  6.2117854741434559 0  6.2593853628342089 -0  6.2831853071795862 0 
 4.7123889803846897 4 4.7837888134208217 1 4.8551886464569529 1 4.926588479493085 1 4.9979883125292162 1 5.0693881455653482 1 5.1407879786014794 1 5.2121878116376115 1 5.2835876446737426 1 5.3549874777098747 1 5.4263873107460068 1 5.497787143782138 1 5.5691869768182691 1 5.6405868098544012 1 5.7119866428905333 1 5.7833864759266644 1 5.8547863089627965 1 5.9261861419989277 1 5.9975859750350597 1 6.0689858080711918 1 6.140385641107323 1 6.2117854741434542 1 6.2831853071795862 4
7 0 0  3 25 23  4.7123889803846897 0  4.736188924730067 0  4.7837888134208217 0  4.8551886464569529 0  4.926588479493085 0  4.9979883125292162 0  5.0693881455653473 0  5.1407879786014794 0  5.2121878116376106 0  5.2835876446737426 0  5.3549874777098747 0  5.4263873107460077 0  5.497787143782138 0  5.5691869768182691 0  5.640586809854403 0  5.7119866428905324 0  5.7833864759266644 0  5.8547863089627974 0  5.9261861419989268 0  5.9975859750350597 0  6.0689858080711918 0  6.1403856411073212 0  6.2117854741434559 0  6.2593853628342089 0  6.2831853071795862 0 
 4.7123889803846897 4 4.7837888134208217 1 4.8551886464569529 1 4.926588479493085 1 4.9979883125292162 1 5.0693881455653482 1 5.1407879786014794 1 5.2121878116376115 1 5.2835876446737426 1 5.3549874777098747 1 5.4263873107460068 1 5.497787143782138 1 5.5691869768182691 1 5.6405868098544012 1 5.7119866428905333 1 5.7833864759266644 1 5.8547863089627965 1 5.9261861419989277 1 5.9975859750350597 1 6.0689858080711918 1 6.140385641107323 1 6.2117854741434542 1 6.2831853071795862 4
7 0 0  3 25 23  6.2831853071795862 0  6.2831853071795862 0.023799944345377161  6.2831853071795862 0.071399833036131538  6.2831853071795862 0.1427996660722633  6.2831853071795862 0.21419949910839481  6.2831853071795862 0.28559933214452649  6.2831853071795862 0.35699916518065838  6.2831853071795862 0.42839899821678989  6.2831853071795862 0.49979883125292168  6.2831853071795862 0.5711986642890533  6.2831853071795862 0.64259849732518493  6.2831853071795862 0.71399833036131655  6.2831853071795862 0.78539816339744817  6.2831853071795862 0.85679799643357957  6.2831853071795862 0.92819782946971141  6.2831853071795862 0.99959766250584314  6.2831853071795862 1.0709974955419748  6.2831853071795862 1.1423973285781066  6.2831853071795862 1.2137971616142382  6.2831853071795862 1.2851969946503699  6.2831853071795862 1.3565968276865017  6.2831853071795862 1.4279966607226331  6.2831853071795862 1.4993964937587649  6.2831853071795862 1.5469963824495192  6.2831853071795862 1.5707963267948966 
 1.5707963267948966 4 1.6421961598310282 1 1.7135959928671598 1 1.7849958259032914 1 1.8563956589394233 1 1.9277954919755549 1 1.9991953250116865 1 2.0705951580478184 1 2.14199499108395 1 2.2133948241200816 1 2.2847946571562132 1 2.3561944901923448 1 2.4275943232284765 1 2.4989941562646081 1 2.5703939893007397 1 2.6417938223368713 1 2.7131936553730034 1 2.7845934884091346 1 2.8559933214452666 1 2.9273931544813983 1 2.9987929875175299 1 3.0701928205536615 1 3.1415926535897931 4
7 0 0  3 25 23  0 0  0 0.023799944345377161  0 0.071399833036131538  0 0.1427996660722633  0 0.21419949910839481  0 0.28559933214452649  0 0.35699916518065838  0 0.42839899821678989  0 0.49979883125292168  0 0.5711986642890533  0 0.64259849732518493  0 0.71399833036131655  0 0.78539816339744817  0 0.85679799643357957  0 0.92819782946971141  0 0.99959766250584314  0 1.0709974955419748  0 1.1423973285781066  0 1.2137971616142382  0 1.2851969946503699  0 1.3565968276865017  0 1.4279966607226331  0 1.4993964937587649  -0 1.5469963824495192  0 1.5707963267948966 
 1.5707963267948966 4 1.6421961598310282 1 1.7135959928671598 1 1.7849958259032914 1 1.8563956589394233 1 1.9277954919755549 1 1.9991953250116865 1 2.0705951580478184 1 2.14199499108395 1 2.2133948241200816 1 2.2847946571562132 1 2.3561944901923448 1 2.4275943232284765 1 2.4989941562646081 1 2.5703939893007397 1 2.6417938223368713 1 2.7131936553730034 1 2.7845934884091346 1 2.8559933214452666 1 2.9273931544813983 1 2.9987929875175299 1 3.0701928205536615 1 3.1415926535897931 4
7 0 0  3 25 23  4.7123889803846897 -1.5707963267948966  4.7123889803846897 -1.5469963824495192  4.7123889803846897 -1.4993964937587649  4.7123889803846888 -1.4279966607226329  4.7123889803846897 -1.3565968276865017  4.7123889803846888 -1.2851969946503699  4.7123889803846897 -1.2137971616142385  4.7123889803846897 -1.1423973285781068  4.7123889803846888 -1.0709974955419752  4.7123889803846897 -0.99959766250584359  4.7123889803846897 -0.92819782946971174  4.7123889803846897 -0.8567979964335799  4.7123889803846888 -0.78539816339744872  4.7123889803846906 -0.71399833036131699  4.7123889803846897 -0.64259849732518537  4.7123889803846897 -0.57119866428905319  4.7123889803846888 -0.49979883125292179  4.7123889803846897 -0.42839899821679028  4.7123889803846897 -0.35699916518065833  4.7123889803846888 -0.28559933214452676  4.7123889803846906 -0.21419949910839495  4.7123889803846888 -0.14279966607226346  4.7123889803846906 -0.07139983303613201  4.7123889803846897 -0.023799944345377584  4.7123889803846897 -2.4492935982947064e-016 
 4.7123889803846897 4 4.7837888134208217 1 4.8551886464569529 1 4.926588479493085 1 4.9979883125292162 1 5.0693881455653482 1 5.1407879786014794 1 5.2121878116376115 1 5.2835876446737426 1 5.3549874777098747 1 5.4263873107460068 1 5.497787143782138 1 5.5691869768182691 1 5.6405868098544012 1 5.7119866428905333 1 5.7833864759266644 1 5.8547863089627965 1 5.9261861419989277 1 5.9975859750350597 1 6.0689858080711918 1 6.140385641107323 1 6.2117854741434542 1 6.2831853071795862 4
7 0 0  3 25 23  4.7123889803846897 -1.5707963267948966  4.7123889803846897 -1.5469963824495192  4.7123889803846897 -1.4993964937587649  4.7123889803846888 -1.4279966607226329  4.7123889803846897 -1.3565968276865017  4.7123889803846888 -1.2851969946503699  4.7123889803846897 -1.2137971616142385  4.7123889803846897 -1.1423973285781068  4.7123889803846888 -1.0709974955419752  4.7123889803846897 -0.99959766250584359  4.7123889803846897 -0.92819782946971174  4.7123889803846897 -0.8567979964335799  4.7123889803846888 -0.78539816339744872  4.7123889803846906 -0.71399833036131699  4.7123889803846897 -0.64259849732518537  4.7123889803846897 -0.57119866428905319  4.7123889803846888 -0.49979883125292179  4.7123889803846897 -0.42839899821679028  4.7123889803846897 -0.35699916518065833  4.7123889803846888 -0.28559933214452676  4.7123889803846906 -0.21419949910839495  4.7123889803846888 -0.14279966607226346  4.7123889803846906 -0.07139983303613201  4.7123889803846897 -0.023799944345377584  4.7123889803846897 -2.4492935982947064e-016 
 4.7123889803846897 4 4.7837888134208217 1 4.8551886464569529 1 4.926588479493085 1 4.9979883125292162 1 5.0693881455653482 1 5.1407879786014794 1 5.2121878116376115 1 5.2835876446737426 1 5.3549874777098747 1 5.4263873107460068 1 5.497787143782138 1 5.5691869768182691 1 5.6405868098544012 1 5.7119866428905333 1 5.7833864759266644 1 5.8547863089627965 1 5.9261861419989277 1 5.9975859750350597 1 6.0689858080711918 1 6.140385641107323 1 6.2117854741434542 1 6.2831853071795862 4
1 4.7123889803846897 -1.5707963267948966 1 0 
7 0 0  3 25 23  6.2831853071795862 -1.5707963267948966  6.2831853071795862 -1.5469963824495192  6.2831853071795862 -1.4993964937587652  6.2831853071795862 -1.4279966607226329  6.2831853071795862 -1.3565968276865019  6.2831853071795862 -1.2851969946503701  6.2831853071795862 -1.213797161614238  6.2831853071795862 -1.1423973285781066  6.2831853071795862 -1.0709974955419752  6.2831853071795862 -0.99959766250584337  6.2831853071795862 -0.92819782946971163  6.2831853071795862 -0.8567979964335799  6.2831853071795862 -0.78539816339744839  6.2831853071795862 -0.71399833036131677  6.2831853071795862 -0.64259849732518504  6.2831853071795862 -0.5711986642890533  6.2831853071795862 -0.49979883125292168  6.2831853071795862 -0.42839899821678989  6.2831853071795862 -0.35699916518065861  6.2831853071795862 -0.2855993321445266  6.2831853071795862 -0.21419949910839498  6.2831853071795862 -0.1427996660722633  6.2831853071795862 -0.071399833036131718  6.2831853071795862 -0.023799944345377241  6.2831853071795862 0 
 0 4 0.071399833036131663 1 0.14279966607226333 1 0.21419949910839498 1 0.28559933214452665 1 0.35699916518065833 1 0.42839899821678995 1 0.49979883125292163 1 0.5711986642890533 1 0.64259849732518493 1 0.71399833036131666 1 0.78539816339744828 1 0.8567979964335799 1 0.92819782946971163 1 0.99959766250584325 1 1.070997495541975 1 1.1423973285781066 1 1.2137971616142382 1 1.2851969946503699 1 1.3565968276865017 1 1.4279966607226333 1 1.4993964937587649 1 1.5707963267948966 4
7 0 0  3 25 23  0 -1.5707963267948966  0 -1.5469963824495192  0 -1.4993964937587652  0 -1.4279966607226329  0 -1.3565968276865019  0 -1.2851969946503701  0 -1.213797161614238  0 -1.1423973285781066  0 -1.0709974955419752  0 -0.99959766250584337  0 -0.92819782946971163  0 -0.8567979964335799  0 -0.78539816339744839  0 -0.71399833036131677  0 -0.64259849732518504  0 -0.5711986642890533  0 -0.49979883125292168  0 -0.42839899821678989  0 -0.35699916518065861  0 -0.2855993321445266  0 -0.21419949910839498  0 -0.1427996660722633  0 -0.071399833036131718  -0 -0.023799944345377241  0 0 
 0 4 0.071399833036131663 1 0.14279966607226333 1 0.21419949910839498 1 0.28559933214452665 1 0.35699916518065833 1 0.42839899821678995 1 0.49979883125292163 1 0.5711986642890533 1 0.64259849732518493 1 0.71399833036131666 1 0.78539816339744828 1 0.8567979964335799 1 0.92819782946971163 1 0.99959766250584325 1 1.070997495541975 1 1.1423973285781066 1 1.2137971616142382 1 1.2851969946503699 1 1.3565968276865017 1 1.4279966607226333 1 1.4993964937587649 1 1.5707963267948966 4
7 0 0  3 25 23  1.5707963267948966 -1.5707963267948966  1.5707963267948966 -1.5469963824495192  1.5707963267948966 -1.4993964937587649  1.5707963267948966 -1.4279966607226329  1.5707963267948968 -1.3565968276865017  1.5707963267948963 -1.2851969946503699  1.5707963267948968 -1.2137971616142385  1.5707963267948966 -1.1423973285781068  1.5707963267948961 -1.0709974955419752  1.5707963267948966 -0.99959766250584359  1.5707963267948963 -0.92819782946971174  1.5707963267948968 -0.8567979964335799  1.5707963267948966 -0.78539816339744872  1.5707963267948968 -0.71399833036131699  1.5707963267948968 -0.64259849732518537  1.5707963267948968 -0.57119866428905319  1.5707963267948963 -0.49979883125292179  1.5707963267948968 -0.42839899821679028  1.5707963267948961 -0.35699916518065833  1.5707963267948966 -0.28559933214452676  1.5707963267948966 -0.21419949910839495  1.5707963267948959 -0.14279966607226346  1.570796326794897 -0.07139983303613201  1.5707963267948966 -0.023799944345377584  1.5707963267948966 -2.4492935982947064e-016 
 4.7123889803846897 4 4.7837888134208217 1 4.8551886464569529 1 4.926588479493085 1 4.9979883125292162 1 5.0693881455653482 1 5.1407879786014794 1 5.2121878116376115 1 5.2835876446737426 1 5.3549874777098747 1 5.4263873107460068 1 5.497787143782138 1 5.5691869768182691 1 5.6405868098544012 1 5.7119866428905333 1 5.7833864759266644 1 5.8547863089627965 1 5.9261861419989277 1 5.9975859750350597 1 6.0689858080711918 1 6.140385641107323 1 6.2117854741434542 1 6.2831853071795862 4
7 0 0  3 25 23  1.5707963267948966 -1.5707963267948966  1.5707963267948966 -1.5469963824495192  1.5707963267948966 -1.4993964937587649  1.5707963267948966 -1.4279966607226329  1.5707963267948968 -1.3565968276865017  1.5707963267948963 -1.2851969946503699  1.5707963267948968 -1.2137971616142385  1.5707963267948966 -1.1423973285781068  1.5707963267948961 -1.0709974955419752  1.5707963267948966 -0.99959766250584359  1.5707963267948963 -0.92819782946971174  1.5707963267948968 -0.8567979964335799  1.5707963267948966 -0.78539816339744872  1.5707963267948968 -0.71399833036131699  1.5707963267948968 -0.64259849732518537  1.5707963267948968 -0.57119866428905319  1.5707963267948963 -0.49979883125292179  1.5707963267948968 -0.42839899821679028  1.5707963267948961 -0.35699916518065833  1.5707963267948966 -0.28559933214452676  1.5707963267948966 -0.21419949910839495  1.5707963267948959 -0.14279966607226346  1.570796326794897 -0.07139983303613201  1.5707963267948966 -0.023799944345377584  1.5707963267948966 -2.4492935982947064e-016 
 4.7123889803846897 4 4.7837888134208217 1 4.8551886464569529 1 4.926588479493085 1 4.9979883125292162 1 5.0693881455653482 1 5.1407879786014794 1 5.2121878116376115 1 5.2835876446737426 1 5.3549874777098747 1 5.4263873107460068 1 5.497787143782138 1 5.5691869768182691 1 5.6405868098544012 1 5.7119866428905333 1 5.7833864759266644 1 5.8547863089627965 1 5.9261861419989277 1 5.9975859750350597 1 6.0689858080711918 1 6.140385641107323 1 6.2117854741434542 1 6.2831853071795862 4
1 1.5707963267948966 -1.5707963267948966 1 0 
7 0 0  3 25 23  3.1415926535897931 -1.5707963267948966  3.1415926535897931 -1.5469963824495192  3.1415926535897931 -1.4993964937587649  3.1415926535897931 -1.4279966607226329  3.1415926535897936 -1.3565968276865017  3.1415926535897927 -1.2851969946503699  3.1415926535897936 -1.2137971616142385  3.1415926535897931 -1.1423973285781068  3.1415926535897922 -1.0709974955419752  3.1415926535897931 -0.99959766250584359  3.1415926535897927 -0.92819782946971174  3.1415926535897936 -0.8567979964335799  3.1415926535897931 -0.78539816339744872  3.1415926535897936 -0.71399833036131699  3.1415926535897936 -0.64259849732518537  3.1415926535897936 -0.57119866428905319  3.1415926535897927 -0.49979883125292179  3.1415926535897936 -0.42839899821679028  3.1415926535897922 -0.35699916518065833  3.1415926535897931 -0.28559933214452676  3.1415926535897931 -0.21419949910839495  3.1415926535897918 -0.14279966607226346  3.141592653589794 -0.07139983303613201  3.1415926535897931 -0.023799944345377584  3.1415926535897931 -2.4492935982947064e-016 
 4.7123889803846897 4 4.7837888134208217 1 4.8551886464569529 1 4.926588479493085 1 4.9979883125292162 1 5.0693881455653482 1 5.1407879786014794 1 5.2121878116376115 1 5.2835876446737426 1 5.3549874777098747 1 5.4263873107460068 1 5.497787143782138 1 5.5691869768182691 1 5.6405868098544012 1 5.7119866428905333 1 5.7833864759266644 1 5.8547863089627965 1 5.9261861419989277 1 5.9975859750350597 1 6.0689858080711918 1 6.140385641107323 1 6.2117854741434542 1 6.2831853071795862 4
7 0 0  3 25 23  3.1415926535897931 -1.5707963267948966  3.1415926535897931 -1.5469963824495192  3.1415926535897931 -1.4993964937587649  3.1415926535897931 -1.4279966607226329  3.1415926535897936 -1.3565968276865017  3.1415926535897927 -1.2851969946503699  3.1415926535897936 -1.2137971616142385  3.1415926535897931 -1.1423973285781068  3.1415926535897922 -1.0709974955419752  3.1415926535897931 -0.99959766250584359  3.1415926535897927 -0.92819782946971174  3.1415926535897936 -0.8567979964335799  3.1415926535897931 -0.78539816339744872  3.1415926535897936 -0.71399833036131699  3.1415926535897936 -0.64259849732518537  3.1415926535897936 -0.57119866428905319  3.1415926535897927 -0.49979883125292179  3.1415926535897936 -0.42839899821679028  3.1415926535897922 -0.35699916518065833  3.1415926535897931 -0.28559933214452676  3.1415926535897931 -0.21419949910839495  3.1415926535897918 -0.14279966607226346  3.141592653589794 -0.07139983303613201  3.1415926535897931 -0.023799944345377584  3.1415926535897931 -2.4492935982947064e-016 
 4.7123889803846897 4 4.7837888134208217 1 4.8551886464569529 1 4.926588479493085 1 4.9979883125292162 1 5.0693881455653482 1 5.1407879786014794 1 5.2121878116376115 1 5.2835876446737426 1 5.3549874777098747 1 5.4263873107460068 1 5.497787143782138 1 5.5691869768182691 1 5.6405868098544012 1 5.7119866428905333 1 5.7833864759266644 1 5.8547863089627965 1 5.9261861419989277 1 5.9975859750350597 1 6.0689858080711918 1 6.140385641107323 1 6.2117854741434542 1 6.2831853071795862 4
1 3.1415926535897931 -1.5707963267948966 1 0 
7 0 0  3 25 23  0 0  0.023799944345377227 0  0.071399833036131663 0  0.14279966607226327 0  0.21419949910839506 0  0.2855993321445266 0  0.35699916518065833 0  0.42839899821678995 0  0.49979883125292163 0  0.57119866428905308 0  0.64259849732518504 0  0.71399833036131655 0  0.78539816339744817 0  0.85679799643358012 0  0.92819782946971152 0  0.99959766250584314 0  1.0709974955419752 0  1.1423973285781064 0  1.2137971616142385 0  1.2851969946503701 0  1.3565968276865015 0  1.4279966607226331 0  1.4993964937587654 0  1.5469963824495192 -0  1.5707963267948966 0 
 0 4 0.071399833036131663 1 0.14279966607226333 1 0.21419949910839498 1 0.28559933214452665 1 0.35699916518065833 1 0.42839899821678995 1 0.49979883125292163 1 0.5711986642890533 1 0.64259849732518493 1 0.71399833036131666 1 0.78539816339744828 1 0.8567979964335799 1 0.92819782946971163 1 0.99959766250584325 1 1.070997495541975 1 1.1423973285781066 1 1.2137971616142382 1 1.2851969946503699 1 1.3565968276865017 1 1.4279966607226333 1 1.4993964937587649 1 1.5707963267948966 4
7 0 0  3 25 23  0 0  0.023799944345377227 0  0.071399833036131663 0  0.14279966607226327 0  0.21419949910839506 0  0.2855993321445266 0  0.35699916518065833 0  0.42839899821678995 0  0.49979883125292163 0  0.57119866428905308 0  0.64259849732518504 0  0.71399833036131655 0  0.78539816339744817 0  0.85679799643358012 0  0.92819782946971152 0  0.99959766250584314 0  1.0709974955419752 0  1.1423973285781064 0  1.2137971616142385 0  1.2851969946503701 0  1.3565968276865015 0  1.4279966607226331 0  1.4993964937587654 0  1.5469963824495192 -0  1.5707963267948966 0 
 0 4 0.071399833036131663 1 0.14279966607226333 1 0.21419949910839498 1 0.28559933214452665 1 0.35699916518065833 1 0.42839899821678995 1 0.49979883125292163 1 0.5711986642890533 1 0.64259849732518493 1 0.71399833036131666 1 0.78539816339744828 1 0.8567979964335799 1 0.92819782946971163 1 0.99959766250584325 1 1.070997495541975 1 1.1423973285781066 1 1.2137971616142382 1 1.2851969946503699 1 1.3565968276865017 1 1.4279966607226333 1 1.4993964937587649 1 1.5707963267948966 4
1 0 -1.5707963267948966 1 0 
1 1.5707963267948966 1.5707963267948966 -1 0 
Curves 12
2 0 0 0 1 -6.1232339957367697e-017 0 6.1232339957367697e-017 1 0 -0 0 1 0.0254000508001016
2 0 0 0 0 0 1 1 0 -0 -0 1 0 0.0254000508001016
2 0 0 0 1.22464679914735e-016 1 0 -1 1.22464679914735e-016 0 0 -0 1 0.0254000508001016
2 0 0 0 0 0 1 1 0 -0 -0 1 0 0.0254000508001016
2 0 0 0 -1 1.8369701987210299e-016 0 -1.8369701987210299e-016 -1 0 0 0 1 0.0254000508001016
2 0 0 0 0 0 1 1 0 -0 -0 1 0 0.0254000508001016
2 0 0 0 0 -1 0 0 0 -1 1 0 0 0.0254000508001016
2 0 0 0 -1 1.8369701987210299e-016 0 -1.8369701987210299e-016 -1 0 0 0 1 0.0254000508001016
2 0 0 0 0 -1 0 0 0 -1 1 0 0 0.0254000508001016
2 0 0 0 1 -6.1232339957367697e-017 0 6.1232339957367697e-017 1 0 -0 0 1 0.0254000508001016
2 0 0 0 1.22464679914735e-016 1 0 -1 1.22464679914735e-016 0 0 -0 1 0.0254000508001016
2 0 0 0 0 0 1 1 0 -0 -0 1 0 0.0254000508001016
Polygon3D 0
PolygonOnTriangulations 0
Surfaces 8
4 0 0 0 0 0 1 1 0 -0 -0 1 0 0.0254000508001016
4 0 0 0 0 0 1 1 0 -0 -0 1 0 0.0254000508001016
4 0 0 0 0 0 1 1 0 -0 -0 1 0 0.0254000508001016
4 0 0 0 0 0 1 1 0 -0 -0 1 0 0.0254000508001016
4 0 0 0 0 0 1 1 0 -0 -0 1 0 0.0254000508001016
4 0 0 0 0 0 1 1 0 -0 -0 1 0 0.0254000508001016
4 0 0 0 0 0 1 1 0 -0 -0 1 0 0.0254000508001016
4 0 0 0 0 0 1 1 0 -0 -0 1 0 0.0254000508001016
Triangulations 0

TShapes 45
Ve
1e-007
1.55530454552623e-018 0 0.0254000508001016
0 0

0101101
*
Ed
 1e-007 1 1 1
2  1 1 0 0 1.5707963267949
0

0101100
+45 0 -45 0 *
Ve
1e-007
1.55530454552623e-018 0.0254000508001016 0
0 0

0101101
*
Ed
 1e-007 1 1 0
1  1 0 0 1.5707963267949
2  2 1 0 0 1.5707963267949
2  3 2 0 0 1.5707963267949
4 G1 1 0 2 0
0

0101000
+43 0 -45 0 *
Ve
1e-007
-0.0254000508001016 3.11060909105246e-018 0
0 0

0101101
*
Ed
 1e-007 1 1 0
1  2 0 1.5707963267949 3.14159265358979
2  4 1 0 1.5707963267949 3.14159265358979
2  5 3 0 1.5707963267949 3.14159265358979
4 G1 1 0 3 0
0

0101000
+43 0 -41 0 *
Ed
 1e-007 1 1 0
1  3 0 0 1.5707963267949
2  6 1 0 0 1.5707963267949
2  7 4 0 0 1.5707963267949
4 G1 1 0 4 0
0

0101000
+41 0 -45 0 *
Wi

0101100
+44 0 -42 0 +40 0 +39 0 *
Fa
0  1e-007 1 0

0111000
+38 0 *
Ed
 1e-007 1 1 1
2  8 4 0 0 1.5707963267949
0

0101100
+45 0 -45 0 *
Ve
1e-007
-4.66591363657869e-018 -0.0254000508001016 0
0 0

0101101
*
Ed
 1e-007 1 1 0
1  4 0 3.14159265358979 4.71238898038469
2  9 4 0 3.14159265358979 4.71238898038469
2  10 5 0 3.14159265358979 4.71238898038469
4 G1 4 0 5 0
0

0101000
+41 0 -35 0 *
Ed
 1e-007 1 1 0
1  5 0 0 1.5707963267949
2  11 4 0 0 1.5707963267949
2  12 6 0 0 1.5707963267949
4 G1 4 0 6 0
0

0101000
+35 0 -45 0 *
Wi

0101100
+36 0 -39 0 +34 0 +33 0 *
Fa
0  1e-007 4 0

0111000
+32 0 *
Ed
 1e-007 1 1 1
2  13 6 0 0 1.5707963267949
0

0101100
+45 0 -45 0 *
Ve
1e-007
0.0254000508001016 0 0
0 0

0101101
*
Ed
 1e-007 1 1 0
1  6 0 4.71238898038469 6.28318530717959
2  14 6 0 4.71238898038469 6.28318530717959
2  15 7 0 4.71238898038469 6.28318530717959
4 G1 6 0 7 0
0

0101000
+35 0 -29 0 *
Ed
 1e-007 1 1 0
1  7 0 1.5707963267949 3.14159265358979
2  16 6 0 1.5707963267949 3.14159265358979
2  17 2 0 1.5707963267949 3.14159265358979
4 G1 6 0 2 0
0

0101000
+29 0 -45 0 *
Wi

0101100
+30 0 -33 0 +28 0 +27 0 *
Fa
0  1e-007 6 0

0111000
+26 0 *
Ve
1e-007
1.55530454552623e-018 0 -0.0254000508001016
0 0

0101101
*
Ed
 1e-007 1 1 0
1  8 0 4.71238898038469 6.28318530717959
2  18 7 0 4.71238898038469 6.28318530717959
2  19 5 0 4.71238898038469 6.28318530717959
4 G1 7 0 5 0
0

0101000
+24 0 -35 0 *
Ed
 1e-007 1 1 1
2  20 7 0 0 1.5707963267949
0

0101100
+24 0 -24 0 *
Ed
 1e-007 1 1 0
1  9 0 0 1.5707963267949
2  21 7 0 0 1.5707963267949
2  22 8 0 0 1.5707963267949
4 G1 7 0 8 0
0

0101000
+24 0 -29 0 *
Wi

0101100
-28 0 -23 0 +22 0 +21 0 *
Fa
0  1e-007 7 0

0111000
+20 0 *
Ed
 1e-007 1 1 0
1  10 0 4.71238898038469 6.28318530717959
2  23 3 0 4.71238898038469 6.28318530717959
2  24 8 0 4.71238898038469 6.28318530717959
4 G1 3 0 8 0
0

0101000
+24 0 -43 0 *
Ed
 1e-007 1 1 1
2  25 3 0 0 1.5707963267949
0

0101100
+24 0 -24 0 *
Ed
 1e-007 1 1 0
1  11 0 4.71238898038469 6.28318530717959
2  26 3 0 4.71238898038469 6.28318530717959
2  27 5 0 4.71238898038469 6.28318530717959
4 G1 3 0 5 0
0

0101000
+24 0 -41 0 *
Wi

0101100
-40 0 -18 0 +17 0 +16 0 *
Fa
0  1e-007 3 0

0111000
+15 0 *
Ed
 1e-007 1 1 1
2  28 5 0 0 1.5707963267949
0

0101100
+24 0 -24 0 *
Wi

0101100
-34 0 -16 0 +13 0 +23 0 *
Fa
0  1e-007 5 0

0111000
+12 0 *
Ed
 1e-007 1 1 0
1  12 0 0 1.5707963267949
2  29 8 0 0 1.5707963267949
2  30 2 0 0 1.5707963267949
4 G1 8 0 2 0
0

0101000
+29 0 -43 0 *
Ed
 1e-007 1 1 1
2  31 8 0 0 1.5707963267949
0

0101100
+24 0 -24 0 *
Wi

0101100
-10 0 -21 0 +9 0 +18 0 *
Fa
0  1e-007 8 0

0111000
+8 0 *
Ed
 1e-007 1 1 1
2  32 2 0 0 1.5707963267949
0

0101100
+45 0 -45 0 *
Wi

0101100
+6 0 -27 0 +10 0 +42 0 *
Fa
0  1e-007 2 0

0111000
+5 0 *
Sh

0101100
+37 0 +31 0 +25 0 +19 0 +14 0 +11 0 +7 0 +4 0 *
So

0100100
+3 0 *
Co

1100000
+2 0 *

+1 0 
##EGADS HEADER FILE-REV 1 ##
0
  1  1  8  8  20  6  12
1 5 1
_body
1
1 5 1
_brch
1
2 8 3
_tParams
 2.206489893530e-03  8.825959574122e-05  1.500000000000e+01 
1 10 1
__brtype__
117
3 8 40
__arg1__
#C:\Users\Brandon\Desktop\unit_sphere.stp
2 8 1
__arg2__
 1.000000000000e+00
1 9 1
__ibrch__
1
1 9 1
__ileft__
-1
1 9 1
__irite__
-1
1 10 1
__igroup__
1
1 10 1
__botype__
400
2 15 1
__@@numbodies__
 1.000000000000e+00
    2 0 4
1 5 2
_body
1 1 
1 5 2
_brch
1 1 
1 7 3
_faceID
1 1 1 
1 5 1
_hist
1
    2 1 4
1 5 2
_body
1 2 
1 5 2
_brch
1 2 
1 7 3
_faceID
1 2 1 
1 5 1
_hist
1
    2 2 4
1 5 2
_body
1 3 
1 5 2
_brch
1 3 
1 7 3
_faceID
1 3 1 
1 5 1
_hist
1
    2 3 4
1 5 2
_body
1 4 
1 5 2
_brch
1 4 
1 7 3
_faceID
1 4 1 
1 5 1
_hist
1
    2 4 4
1 5 2
_body
1 5 
1 5 2
_brch
1 5 
1 7 3
_faceID
1 5 1 
1 5 1
_hist
1
    2 5 4
1 5 2
_body
1 6 
1 5 2
_brch
1 6 
1 7 3
_faceID
1 6 1 
1 5 1
_hist
1
    2 6 4
1 5 2
_body
1 7 
1 5 2
_brch
1 7 
1 7 3
_faceID
1 7 1 
1 5 1
_hist
1
    2 7 4
1 5 2
_body
1 8 
1 5 2
_brch
1 8 
1 7 3
_faceID
1 8 1 
1 5 1
_hist
1
    4 0 3
1 5 2
_body
1 -3 
1 7 5
_edgeID
0 0 1 1 1 
1 6 1
_nface
1
    4 1 3
1 5 2
_body
1 108 
1 7 5
_edgeID
1 1 1 8 1 
1 6 1
_nface
2
    4 2 3
1 5 2
_body
1 105 
1 7 5
_edgeID
1 1 1 5 1 
1 6 1
_nface
2
    4 3 3
1 5 2
_body
1 102 
1 7 5
_edgeID
1 1 1 2 1 
1 6 1
_nface
2
    4 4 3
1 5 2
_body
1 -3 
1 7 5
_edgeID
0 0 1 2 1 
1 6 1
_nface
1
    4 5 3
1 5 2
_body
1 206 
1 7 5
_edgeID
1 2 1 6 1 
1 6 1
_nface
2
    4 6 3
1 5 2
_body
1 203 
1 7 5
_edgeID
1 2 1 3 1 
1 6 1
_nface
2
    4 7 3
1 5 2
_body
1 -3 
1 7 5
_edgeID
0 0 1 3 1 
1 6 1
_nface
1
    4 8 3
1 5 2
_body
1 304 
1 7 5
_edgeID
1 3 1 4 1 
1 6 1
_nface
2
    4 9 3
1 5 2
_body
1 308 
1 7 5
_edgeID
1 3 1 8 1 
1 6 1
_nface
2
    4 10 3
1 5 2
_body
1 406 
1 7 5
_edgeID
1 4 1 6 1 
1 6 1
_nface
2
    4 11 3
1 5 2
_body
1 -3 
1 7 5
_edgeID
0 0 1 4 1 
1 6 1
_nface
1
    4 12 3
1 5 2
_body
1 407 
1 7 5
_edgeID
1 4 1 7 1 
1 6 1
_nface
2
    4 13 3
1 5 2
_body
1 507 
1 7 5
_edgeID
1 5 1 7 1 
1 6 1
_nface
2
    4 14 3
1 5 2
_body
1 -3 
1 7 5
_edgeID
0 0 1 5 1 
1 6 1
_nface
1
    4 15 3
1 5 2
_body
1 506 
1 7 5
_edgeID
1 5 1 6 1 
1 6 1
_nface
2
    4 16 3
1 5 2
_body
1 -3 
1 7 5
_edgeID
0 0 1 6 1 
1 6 1
_nface
1
    4 17 3
1 5 2
_body
1 708 
1 7 5
_edgeID
1 7 1 8 1 
1 6 1
_nface
2
    4 18 3
1 5 2
_body
1 -3 
1 7 5
_edgeID
0 0 1 7 1 
1 6 1
_nface
1
    4 19 3
1 5 2
_body
1 -3 
1 7 5
_edgeID
0 0 1 8 1 
1 6 1
_nface
1
    5 0 2
1 7 1
_nodeID
1
1 6 1
_nedge
8
    5 1 2
1 7 1
_nodeID
2
1 6 1
_nedge
4
    5 2 2
1 7 1
_nodeID
3
1 6 1
_nedge
4
    5 3 2
1 7 1
_nodeID
4
1 6 1
_nedge
4
    5 4 2
1 7 1
_nodeID
5
1 6 1
_nedge
4
    5 5 2
1 7 1
_nodeID
6
1 6 1
_nedge
8
    0 0 0
