<svg id="Layer_1" data-name="Layer 1" xmlns="http://www.w3.org/2000/svg" viewBox="0 0 355.15 67.84"><defs><style>.cls-1{fill:#414344;}.cls-2{fill:#6da39f;}.cls-3,.cls-4,.cls-5{fill:none;stroke:#6da39f;}.cls-3,.cls-4{stroke-linecap:round;stroke-linejoin:round;stroke-width:3.02px;}.cls-4{stroke-dasharray:0 5.87;}.cls-5{stroke-miterlimit:10;stroke-width:2.01px;}.cls-6{fill:#305f8a;}.cls-7{fill:#bacc34;}.cls-8{fill:#d96135;}</style></defs><path class="cls-1" d="M74.77,16.28H88.06a20.41,20.41,0,0,1,6.43,1A15.67,15.67,0,0,1,100,20.42a15.16,15.16,0,0,1,3.81,5.27,18,18,0,0,1,1.43,7.45,15.64,15.64,0,0,1-5.88,12.74A17.91,17.91,0,0,1,93.56,49a20.19,20.19,0,0,1-6.21,1H74.77ZM85.25,44.57a21.23,21.23,0,0,0,5.31-.64,12.56,12.56,0,0,0,4.36-2,9.43,9.43,0,0,0,2.93-3.52,11.87,11.87,0,0,0,1.07-5.27,13.19,13.19,0,0,0-1-5.24,9.27,9.27,0,0,0-2.64-3.55,11.2,11.2,0,0,0-4-2,18.82,18.82,0,0,0-5.07-.64H80.77V44.57Z"/><path class="cls-1" d="M109.4,16.28h9.15l9,23.63,9.1-23.63h9V50H140V22h-.1L129.65,50h-4.19L115.21,22h-.09V50H109.4Z"/><path class="cls-1" d="M151.7,16.28h8L176,41.34h.1V16.28h6V50h-7.62L157.8,24.14h-.09V50h-6Z"/><path class="cls-1" d="M193,40.57a5.8,5.8,0,0,0,2,4A6.21,6.21,0,0,0,199.1,46a6.81,6.81,0,0,0,3.6-.88,9.77,9.77,0,0,0,2.55-2.21h0l4.1,3.09a11.62,11.62,0,0,1-4.48,3.53,13.15,13.15,0,0,1-5.19,1,13.73,13.73,0,0,1-4.86-.86,11.32,11.32,0,0,1-6.6-6.22,12.89,12.89,0,0,1,0-9.86,11.52,11.52,0,0,1,2.64-3.79,11.87,11.87,0,0,1,4-2.43,13.72,13.72,0,0,1,4.86-.85,11.25,11.25,0,0,1,4.36.83,9.47,9.47,0,0,1,3.38,2.41,11.23,11.23,0,0,1,2.19,3.88,16.58,16.58,0,0,1,.78,5.31v1.57Zm11.72-4.28a5.4,5.4,0,0,0-1.57-4,5.9,5.9,0,0,0-4.24-1.46,5.58,5.58,0,0,0-4.08,1.48,6.58,6.58,0,0,0-1.83,4Z"/><path class="cls-1" d="M212.35,32V27.14h4.71V20.52h5.72v6.62h6.29V32h-6.29V42a5,5,0,0,0,.64,2.72,2.84,2.84,0,0,0,2.55,1,9.36,9.36,0,0,0,1.67-.17l1.39-.26s0,0,0,0v4.49a7.23,7.23,0,0,1-2.22.6,18.75,18.75,0,0,1-2.31.17,11.82,11.82,0,0,1-3.74-.5,4.88,4.88,0,0,1-2.28-1.53A5.76,5.76,0,0,1,217.37,46a18.28,18.28,0,0,1-.31-3.52V32Z"/><path class="cls-1" d="M230.69,27.14h6.19l5,16h.09l4.62-16h6.19l5,16h.09l4.77-16h5.76L260.56,50h-5.67l-5.43-15.63h-.1L244.55,50h-5.91Z"/><path class="cls-1" d="M269.85,38.57a12.12,12.12,0,0,1,1-4.93,11.4,11.4,0,0,1,2.65-3.79,11.93,11.93,0,0,1,3.95-2.43,14.32,14.32,0,0,1,9.72,0,11.93,11.93,0,0,1,3.95,2.43,11.55,11.55,0,0,1,2.65,3.79,13,13,0,0,1,0,9.86,11.4,11.4,0,0,1-6.6,6.22,14.16,14.16,0,0,1-9.72,0,11.61,11.61,0,0,1-3.95-2.43,11.4,11.4,0,0,1-2.65-3.79A12.08,12.08,0,0,1,269.85,38.57Zm5.71,0a7.22,7.22,0,0,0,.46,2.57,6.42,6.42,0,0,0,1.33,2.2,6.77,6.77,0,0,0,9.86,0,6.42,6.42,0,0,0,1.33-2.2,7.41,7.41,0,0,0,0-5.14,6.29,6.29,0,0,0-1.33-2.19,6.5,6.5,0,0,0-4.93-2.1,6.62,6.62,0,0,0-2.81.57,6.7,6.7,0,0,0-2.12,1.53A6.29,6.29,0,0,0,276,36,7.26,7.26,0,0,0,275.56,38.57Z"/><path class="cls-1" d="M299.33,27.14h5.72v3.62h.1a7.2,7.2,0,0,1,2.71-3.1,7.54,7.54,0,0,1,4.05-1.09,5.69,5.69,0,0,1,1,.09l1,.24v5.43a0,0,0,0,1,0,0l-1.38-.24A7.87,7.87,0,0,0,311.2,32a6.07,6.07,0,0,0-3.22.74,5.8,5.8,0,0,0-1.86,1.69,5.72,5.72,0,0,0-.86,1.9,7.46,7.46,0,0,0-.21,1.43V50h-5.72Z"/><path class="cls-1" d="M317.15,14h5.72V36.62l8.81-9.48H339L329.2,37.52,339.64,50h-7.58L323,38.33h-.09V50h-5.72Z"/><rect class="cls-2" x="46.9" y="42.05" width="2.98" height="1.56" transform="translate(67.87 104.44) rotate(-149.06)"/><rect class="cls-2" x="48.59" y="39.22" width="2.98" height="1.56" transform="translate(27.7 -20.06) rotate(30.94)"/><rect class="cls-2" x="50.28" y="36.4" width="2.98" height="1.56" transform="translate(77.07 95.69) rotate(-149.06)"/><rect class="cls-2" x="51.98" y="33.58" width="2.98" height="1.56" transform="translate(25.28 -22.6) rotate(30.94)"/><rect class="cls-2" x="53.67" y="30.75" width="2.98" height="1.56" transform="translate(86.26 86.94) rotate(-149.06)"/><rect class="cls-2" x="55.36" y="27.93" width="2.98" height="1.56" transform="translate(22.85 -25.15) rotate(30.94)"/><rect class="cls-2" x="57.05" y="25.11" width="2.98" height="1.56" transform="translate(95.45 78.19) rotate(-149.06)"/><rect class="cls-2" x="58.75" y="22.28" width="2.98" height="1.56" transform="translate(100.05 73.82) rotate(-149.06)"/><line class="cls-3" x1="62.22" y1="17.71" x2="62.22" y2="17.71"/><line class="cls-4" x1="56.36" y1="17.71" x2="29.96" y2="17.71"/><line class="cls-3" x1="27.03" y1="17.71" x2="27.03" y2="17.71"/><line class="cls-5" x1="26.62" y1="17.71" x2="44.22" y2="48.19"/><circle class="cls-6" cx="26.04" cy="17.71" r="3.53"/><circle class="cls-7" cx="44.8" cy="48.19" r="4.4"/><circle class="cls-8" cx="63.56" cy="17.71" r="4"/></svg>